<?xml version="1.0" encoding="utf-8"?>
<!-- Generator: Adobe Illustrator 16.0.0, SVG Export Plug-In . SVG Version: 6.00 Build 0)  -->
<!DOCTYPE svg PUBLIC "-//W3C//DTD SVG 1.1//EN" "http://www.w3.org/Graphics/SVG/1.1/DTD/svg11.dtd">
<svg version="1.1" id="Capa_2" xmlns="http://www.w3.org/2000/svg" xmlns:xlink="http://www.w3.org/1999/xlink" x="0px" y="0px"
	 width="1000px" height="1000px" viewBox="0 0 1000 1000" enable-background="new 0 0 1000 1000" xml:space="preserve">
<path fill="#FFA600" d="M500.224,4.547C224.345,4.547,0.701,228.191,0.701,504.069c0,275.879,223.644,499.521,499.521,499.521
	c275.879,0,499.522-223.644,499.522-499.521C999.746,228.191,776.104,4.547,500.224,4.547z M500.224,936.592
	c-238.875,0-432.521-193.646-432.521-432.521c0-238.875,193.647-432.522,432.521-432.522c238.876,0,432.522,193.647,432.522,432.522
	C932.746,742.945,739.1,936.592,500.224,936.592z"/>
<g>
	<g>
		<g>
			<path fill="#FFA600" d="M522.558,320.801c-0.906-3.795-2.061-7.463-3.458-11.027l-2.314-6l16.598-21.366l-3.088-4.597
				l-25.436,7.13l-4.701-4.75c-2.083-2.088-4.233-4.126-6.506-6.048l-5.169-4.292l4.8-24.449l-4.821-2.7l-18.59,16.977l-6.207-1.938
				c-4.375-1.336-8.915-2.266-13.544-2.905l-6.996-0.966l-7.883-23.926h-5.516l-8.325,25.162l-5.832,1.616
				c-2.418,0.689-4.82,1.375-7.163,2.18l-6.354,2.151L381.9,242.704l-4.819,2.7l5.462,27.772l-12.213,12.046l-26.365-7.411
				l-3.068,4.571l17.217,22.145l-2.24,5.946c-0.909,2.407-1.706,4.827-2.399,7.284l-1.647,5.779l-27.017,9.017l0.016,5.515
				l25.334,8.25l0.973,7.031c0.42,3.03,0.982,5.997,1.713,8.951l1.528,6.112l-17.001,17.636l2.581,4.888l22.87-3.881l4.157,5.578
				c1.896,2.559,3.902,5.055,6.035,7.373l4.274,4.661l-6.184,21.99l4.575,3.057l17.031-13.179l6.354,3.104
				c5.773,2.84,11.74,5.005,17.747,6.444l6.175,1.492l6.688,20.499h5.527l6.398-19.275l7.1-0.893
				c4.556-0.576,8.99-1.465,13.319-2.702l7.191-2.075l13.086,16.008l5.138-1.949l-1.113-23.253l4.749-3.603
				c3.874-2.955,7.679-6.47,11.282-10.429l4.188-4.584l23.818,4.023l2.578-4.877l-15.772-16.336l2.44-6.685
				c2.62-7.17,4.251-14.045,4.977-21l0.771-7.333l15.497-5.042l0.022-5.503l-16.847-5.628L522.558,320.801z M437.627,400.45
				c-32.632,0-59.174-26.562-59.174-59.212c0-32.599,26.542-59.136,59.174-59.136c32.637,0,59.182,26.537,59.182,59.136
				C496.808,373.888,470.264,400.45,437.627,400.45z"/>
			<g>
				<path fill="#FFA600" d="M587.549,482.979c-2.589-0.967-5.295-1.45-8.033-1.45c-9.727,0-18.521,6.138-21.877,15.28
					c-4.423,12.061,1.775,25.51,13.838,29.938c11.854,4.319,25.615-2.126,29.93-13.841
					C605.848,500.833,599.622,487.398,587.549,482.979z"/>
				<path fill="#FFA600" d="M649.184,487.195l-16.877-1.313l-1.779-3.919c-0.766-1.696-1.605-3.388-2.521-5.004l-2.188-3.746
					l8.274-13.611l-2.28-2.685l-14.937,6.059l-3.298-2.52c-2.332-1.758-4.866-3.327-7.518-4.763l-3.96-2.154l0.563-16.042
					l-3.325-1.199l-10.575,13.294l-3.91-0.369c-1.554-0.114-3.101-0.215-4.651-0.255l-4.323-0.063l-8.069-15.513l-3.494,0.573
					l-2.847,17.942l-3.819,1.541c-0.757,0.292-1.521,0.624-2.269,0.992l-3.907,1.909L537.285,446.1l-2.854,2.063l5.424,17.117
					l-2.666,3.083c-1.053,1.222-2.051,2.48-2.99,3.779l-2.256,3.136l-18.256-0.524l-1.209,3.314l13.39,10.542l-0.96,4.417
					c-0.407,1.923-0.729,3.818-0.938,5.754l-0.438,4l-14.093,6.838l0.472,3.503l14.613,2.736l1.24,4.279
					c0.563,1.975,1.229,3.909,2.005,5.818l1.479,3.729l-8.522,11.755l2.077,2.864l13.111-4.147l3.119,3.286
					c2.835,2.926,5.947,5.55,9.282,7.776l3.344,2.265l-0.497,13.74l3.32,1.237l8.077-10.137l4.471,1.019
					c2.871,0.662,5.761,1.1,8.654,1.313l4.748,0.386l4.306,12.442l3.523-0.027l4.45-14.173l3.646-1.16
					c3.022-0.914,6.078-2.176,9.073-3.755l3.513-1.834l13.447,7.651l2.607-2.368l-5.846-13.269l2.929-3.478
					c3.107-3.667,5.669-7.525,7.644-11.498l2.071-4.201l10.418,0.354l1.212-3.309l-8.861-7.066l0.472-3.999
					c0.289-2.483,0.393-4.969,0.369-7.41l-0.08-4.141l14.686-9.154L649.184,487.195z M615.055,517.922
					c-5.448,14.819-19.716,24.807-35.521,24.807c-4.462,0-8.868-0.805-13.084-2.344c-19.577-7.206-29.648-28.994-22.46-48.593
					c6.99-19.014,29.42-29.442,48.579-22.477C612.164,476.534,622.249,498.322,615.055,517.922z"/>
				<path fill="#FFA600" d="M500.256,121.305c-140.386,0-254.599,120.984-254.599,269.695c0,101.985,53.342,194.138,139.212,240.493
					l8.978,4.852l-0.115,10.19c-0.171,16.006-0.285,25.327-0.364,31.664c-0.057,4.464-0.091,7.436-0.116,10.209h7.619v8.088
					l45.391,0.313v-8.398h155.875c0.064-6.22,0.11-17.48,0.11-39.674v-10.279l9.146-4.729
					c88.506-45.566,143.48-138.572,143.48-242.729C754.873,242.289,640.652,121.305,500.256,121.305z M460.898,448.886
					c-0.728,0.145-1.444,0.281-2.159,0.446l-7.163,21.512l-38.419-0.088l-7.908-24.271c-3.245-1.008-6.442-2.164-9.626-3.478
					l-18.994,14.723l-31.847-21.395l6.833-24.35l-24.124,4.063l-17.887-33.962L328.003,363l-25.842-8.43l-0.147-38.366l28.887-9.653
					l-18.032-23.188l21.426-31.862l22.055,6.177l-4.717-24.027l33.44-18.821l19.75,18.019l8.48-25.634h38.379l8.66,26.311
					c1.222,0.228,2.413,0.497,3.615,0.79l21.337-19.482l33.445,18.821l-4.937,25.187l26.168-7.335l21.438,31.85l-18.921,24.373
					c0.167,0.535,0.315,1.057,0.489,1.578l20.675,6.876l-0.115,38.394l-17.394,5.667c-0.729,4.063-1.691,8.1-2.922,12.161
					l17.476,18.108l-17.911,33.959l-28.009-4.709c-1.711,1.668-3.438,3.261-5.195,4.788l1.363,27.952l-35.859,13.753
					L460.898,448.886z M660.719,517.631l-8.545,23.021l-11.688-0.422c-1.337,2.268-2.803,4.445-4.418,6.621l6.491,14.745
					l-18.248,16.439l-15.784-9.005c-1.391,0.624-2.775,1.201-4.183,1.731l-5.358,17.039l-24.545,0.409l-4.692-13.587
					c-0.471-0.067-0.938-0.142-1.401-0.22l-9.063,11.348l-23.021-8.557l0.586-16.288c-1.725-1.313-3.403-2.738-5.017-4.201
					l-14.659,4.623l-14.387-19.896l9.481-13.088l-15.37-2.891l-3.249-24.36l15.241-7.373l-13.648-10.758l8.383-23.086l19.457,0.611
					l-5.697-17.93l19.901-14.428l11.868,8.597l2.478-15.462l24.235-3.904l7.878,15.176l10.741-13.525l23.073,8.435l-0.608,17.75
					c0.661,0.392,1.322,0.813,1.983,1.259l17.104-6.99l15.928,18.684l-8.503,14.017l17.328,1.377l5.834,23.877l-16.746,10.441
					c-0.013,0.354-0.022,0.723-0.051,1.064L660.719,517.631z"/>
			</g>
			<path fill="#FFA600" d="M437.627,304.818c-20.095,0-36.451,16.339-36.451,36.418c0,20.133,16.356,36.482,36.451,36.482
				c20.093,0,36.458-16.349,36.458-36.482C474.084,321.157,457.72,304.818,437.627,304.818z"/>
		</g>
		<g>
			<rect x="421.596" y="840.536" fill="#FFA600" width="150.592" height="35.506"/>
			<path fill="#FFA600" d="M500,45.477C248.974,45.477,45.477,248.974,45.477,500c0,251.026,203.497,454.523,454.523,454.523
				c251.026,0,454.521-203.497,454.521-454.523C954.521,248.974,751.026,45.477,500,45.477z M605.95,914.267H387.844V802.309H605.95
				V914.267z M343.244,800.331v-38.548h57.625v38.548H343.244z M657.525,800.331H446.26v-38.548h211.268L657.525,800.331
				L657.525,800.331z M746.757,549.188c-26.697,46.106-64.929,83.937-110.741,109.618c-0.007,11.504-0.025,21.38-0.062,29.604
				h14.203v30.355h-14.776c-0.047,0.222-0.092,0.439-0.15,0.641l-0.273,12.438l-275.47-1.891l-0.023-11.188H336.26v-30.355h23.326
				c0.063-7.969,0.157-18.453,0.292-32.243c-44.423-26.063-81.494-63.846-107.374-109.482c-26.561-46.839-40.6-100.674-40.6-155.684
				c0-167.326,129.355-303.456,288.353-303.456c159.004,0,288.364,136.129,288.364,303.456
				C788.619,447.188,774.142,501.888,746.757,549.188z"/>
		</g>
	</g>
	<polygon fill="#BC6600" points="446.26,800.331 446.26,761.783 641.814,761.783 641.814,718.766 446.26,718.766 446.26,691.117 
		400.869,691.117 400.869,718.766 354.038,718.766 354.038,761.783 400.869,761.783 400.869,800.331 354.038,800.331 
		354.038,842.227 641.814,842.227 641.814,800.331 	"/>
</g>
</svg>
