<?xml version="1.0" encoding="utf-8"?>
<!-- Generator: Adobe Illustrator 16.0.3, SVG Export Plug-In . SVG Version: 6.00 Build 0)  -->
<!DOCTYPE svg PUBLIC "-//W3C//DTD SVG 1.1//EN" "http://www.w3.org/Graphics/SVG/1.1/DTD/svg11.dtd">
<svg version="1.1" id="Adaptative" xmlns="http://www.w3.org/2000/svg" xmlns:xlink="http://www.w3.org/1999/xlink" x="0px" y="0px"
	 width="1000.006px" height="1000px" viewBox="0 0 1000.006 1000" enable-background="new 0 0 1000.006 1000" xml:space="preserve">
<path fill="#F1C40F" stroke="#F1C40F" stroke-width="15" stroke-miterlimit="10" d="M584.253,910.055H396.13v-90.456h188.124
	L584.253,910.055L584.253,910.055z M414.627,887.441h151.119v-45.227H414.627V887.441z"/>
<path fill="#F1C40F" stroke="#F1C40F" stroke-width="15" stroke-miterlimit="10" d="M611.08,742.161l-241.056-1.653l-0.019-9.169
	c0,0-0.083-4.485,0.426-56.093c-84.146-47.796-136.187-139.354-136.187-240.377c0-150.481,116.198-272.933,259.038-272.933
	c142.839,0,259.047,122.452,259.047,272.933c0,103.185-53.66,195.66-140.409,242.703c-0.026,74.822-0.639,55.484-0.639,55.484
	L611.08,742.161z M388.498,722.146l204.446,1.411c0.178-13.622,0.459,2.257,0.459-51.542v-5.635l5.021-2.594
	c83.523-43.003,135.414-130.719,135.414-228.917c0-140.294-107.914-254.428-240.555-254.428
	c-132.633,0-240.54,114.133-240.54,254.428c0,96.151,50.346,183.057,131.387,226.807l4.921,2.659l-0.064,5.583
	C388.561,710.016,388.51,704.503,388.498,722.146z"/>
<rect x="358.746" y="711.011" fill="#B5981D" width="264.785" height="139.039"/>
<rect x="443.6" y="708.519" fill="#F1C40F" width="187.607" height="27.933"/>
<rect x="342.386" y="708.519" fill="#F1C40F" width="59.449" height="27.933"/>
<rect x="443.6" y="776.031" fill="#F1C40F" width="194.388" height="35.47"/>
<rect x="348.814" y="776.031" fill="#F1C40F" width="53.021" height="35.47"/>
<path fill="#F1C40F" d="M448.492,508.335l-35.35-0.081l-7.276-22.332c-2.986-0.926-5.928-1.991-8.858-3.198l-17.476,13.545
	l-29.303-19.684l6.287-22.404l-22.197,3.738l-16.458-31.248l16.93-17.563l-23.778-7.757l-0.135-35.301l26.579-8.881l-16.591-21.336
	l19.714-29.316l20.293,5.683l-4.34-22.108l30.768-17.317l18.173,16.579l7.804-23.586h35.313l7.968,24.208
	c1.124,0.21,2.221,0.457,3.327,0.727l19.632-17.926l30.774,17.317l-4.54,23.175l24.078-6.749l19.724,29.305l-17.411,22.426
	c0.154,0.492,0.293,0.972,0.452,1.452l19.021,6.327l-0.104,35.326l-16.005,5.214c-0.669,3.739-1.555,7.453-2.686,11.19
	l16.076,16.661l-16.479,31.248l-25.771-4.333c-1.574,1.534-3.164,2.999-4.78,4.405l1.254,25.719l-32.994,12.654l-13.058-15.982
	c-0.668,0.131-1.329,0.258-1.986,0.41L448.492,508.335z M428.341,487.385h5.085l5.887-17.736l6.533-0.822
	c4.193-0.528,8.272-1.348,12.255-2.485l6.619-1.908l12.04,14.728l4.727-1.794l-1.026-21.394l4.371-3.316
	c3.562-2.719,7.064-5.953,10.38-9.596l3.854-4.217l21.916,3.701l2.373-4.487l-14.513-15.032l2.245-6.15
	c2.414-6.597,3.912-12.923,4.58-19.322l0.709-6.748l14.258-4.64l0.023-5.063l-15.5-5.178l-1.354-5.647
	c-0.837-3.492-1.897-6.867-3.181-10.146l-2.132-5.52l15.271-19.66l-2.841-4.229l-23.403,6.561l-4.325-4.371
	c-1.917-1.921-3.896-3.796-5.987-5.565l-4.757-3.949l4.417-22.495l-4.436-2.484l-17.105,15.62l-5.711-1.783
	c-4.025-1.229-8.203-2.084-12.462-2.672l-6.438-0.89l-7.253-22.015h-5.073l-7.662,23.152l-5.366,1.488
	c-2.226,0.633-4.435,1.265-6.591,2.005l-5.845,1.979l-18.543-16.883l-4.434,2.484l5.026,25.554l-11.237,11.084l-24.259-6.819
	l-2.823,4.206l15.84,20.375l-2.061,5.472c-0.838,2.214-1.57,4.441-2.208,6.701l-1.517,5.318l-24.858,8.297l0.013,5.073l23.31,7.591
	l0.896,6.469c0.386,2.788,0.903,5.518,1.576,8.236l1.405,5.624l-15.642,16.227l2.374,4.499l21.043-3.572l3.825,5.132
	c1.747,2.355,3.592,4.651,5.555,6.784l3.931,4.288l-5.688,20.234l4.211,2.812l15.671-12.126l5.846,2.857
	c5.315,2.613,10.804,4.605,16.329,5.929l5.682,1.372L428.341,487.385z M435.657,443.565c-30.025,0-54.447-24.44-54.447-54.482
	c0-29.994,24.422-54.412,54.447-54.412c30.029,0,54.454,24.417,54.454,54.412C490.11,419.125,465.686,443.565,435.657,443.565z
	 M435.657,355.573c-18.49,0-33.539,15.033-33.539,33.509c0,18.524,15.049,33.567,33.539,33.567
	c18.488,0,33.545-15.043,33.545-33.567C469.202,370.606,454.145,355.573,435.657,355.573z"/>
<path fill="#F1C40F" d="M561.54,616.329l-4.318-12.502c-0.434-0.061-0.861-0.13-1.29-0.201l-8.341,10.44l-21.177-7.873l0.539-14.985
	c-1.588-1.208-3.135-2.52-4.618-3.867l-13.486,4.254l-13.238-18.304l8.724-12.043l-14.142-2.659l-2.989-22.416l14.024-6.783
	l-12.559-9.899l7.714-21.242l17.903,0.563l-5.244-16.497l18.313-13.275l10.92,7.908l2.279-14.224l22.298-3.595l7.25,13.964
	l9.884-12.445l21.231,7.759l-0.562,16.333c0.608,0.361,1.218,0.747,1.826,1.159l15.735-6.432l14.656,17.189l-7.822,12.898
	l15.944,1.266l5.367,21.97l-15.409,9.607c-0.011,0.327-0.023,0.666-0.047,0.982l10.02,8.005l-7.861,21.182l-10.758-0.386
	c-1.229,2.085-2.576,4.091-4.064,6.092l5.974,13.568l-16.789,15.125l-14.526-8.283c-1.277,0.573-2.554,1.103-3.845,1.594
	l-4.933,15.677L561.54,616.329z M550.609,588.827l4.113,0.938c2.642,0.608,5.301,1.008,7.963,1.207l4.369,0.353l3.96,11.448
	l3.245-0.024l4.095-13.041l3.352-1.066c2.783-0.843,5.594-2.004,8.349-3.456l3.232-1.688l12.373,7.041l2.401-2.18l-5.379-12.208
	l2.696-3.199c2.858-3.373,5.215-6.923,7.03-10.579l1.908-3.865l9.586,0.326l1.113-3.044l-8.154-6.503l0.434-3.68
	c0.267-2.286,0.361-4.569,0.339-6.818l-0.072-3.808l13.511-8.425l-0.762-3.176l-15.526-1.208l-1.64-3.607
	c-0.703-1.56-1.476-3.117-2.319-4.604l-2.016-3.446l7.615-12.524l-2.097-2.471l-13.744,5.575l-3.035-2.319
	c-2.145-1.617-4.476-3.06-6.914-4.382l-3.644-1.981l0.516-14.762l-3.058-1.102l-9.731,12.231l-3.596-0.339
	c-1.431-0.107-2.854-0.198-4.283-0.234l-3.978-0.06l-7.424-14.271l-3.217,0.527l-2.617,16.509l-3.516,1.418
	c-0.696,0.268-1.401,0.573-2.086,0.912L540.406,495l-13.054-9.433l-2.623,1.897l4.989,15.748l-2.454,2.837
	c-0.966,1.124-1.885,2.283-2.751,3.479l-2.075,2.883l-16.797-0.481l-1.112,3.048l12.319,9.701l-0.884,4.064
	c-0.374,1.77-0.668,3.517-0.861,5.295l-0.406,3.68l-12.965,6.292l0.433,3.223l13.446,2.518l1.143,3.938
	c0.515,1.816,1.13,3.597,1.845,5.354l1.36,3.432l-7.84,10.814l1.91,2.637l12.062-3.819l2.871,3.024
	c2.608,2.693,5.473,5.107,8.541,7.157l3.077,2.084l-0.457,12.643l3.053,1.138L550.609,588.827z M566.226,574.476
	c-4.105,0-8.159-0.739-12.038-2.157c-18.014-6.629-27.281-26.677-20.667-44.71c6.433-17.494,27.07-27.089,44.699-20.68
	c18.03,6.641,27.31,26.688,20.692,44.722C593.896,565.288,580.768,574.476,566.226,574.476z M566.209,518.165
	c-8.95,0-17.043,5.648-20.127,14.061c-4.071,11.094,1.633,23.47,12.73,27.545c10.907,3.973,23.571-1.956,27.538-12.736
	c4.09-11.106-1.641-23.469-12.748-27.535C571.218,518.611,568.73,518.165,566.209,518.165z"/>
</svg>
