<?xml version="1.0" encoding="utf-8"?>
<!-- Generator: Adobe Illustrator 16.0.0, SVG Export Plug-In . SVG Version: 6.00 Build 0)  -->
<!DOCTYPE svg PUBLIC "-//W3C//DTD SVG 1.1//EN" "http://www.w3.org/Graphics/SVG/1.1/DTD/svg11.dtd">
<svg version="1.1" id="Layer_1" xmlns="http://www.w3.org/2000/svg" xmlns:xlink="http://www.w3.org/1999/xlink" x="0px" y="0px"
	 width="246px" height="246px" viewBox="0 0 246 246" enable-background="new 0 0 246 246" xml:space="preserve">
<g>
	<path fill="#FFC928" d="M167.538,196.729c4.578-8.271,7.799-17.401,9.374-27.086c-12.014,13.75-29.25,22.817-48.613,24.117
		c-0.015,0.012-0.031,0.022-0.05,0.034c-7.931,5.705-16.629,9.863-25.678,12.472c-28.375,8.183-60.19,1.131-82.556-21.236
		c-2.271-2.271-4.375-4.644-6.324-7.098c0.238,0.476,0.479,0.945,0.723,1.418c14.584,28.172,39.763,49.974,70.263,60.131
		c3.118,0.358,6.288,0.549,9.503,0.549C125.786,240.027,153.249,222.543,167.538,196.729L167.538,196.729z"/>
	<path fill="#2D58A4" d="M52.725,127.805c-0.106-1.591-0.166-3.19-0.166-4.806c0-17.857,6.603-34.171,17.496-46.641
		c0.007-0.047,0.014-0.094,0.021-0.141c0.024-0.144,0.05-0.287,0.075-0.43c0.083-0.484,0.167-0.968,0.257-1.45
		c0.021-0.11,0.043-0.221,0.064-0.33c0.107-0.561,0.219-1.119,0.337-1.676c0.002-0.011,0.004-0.021,0.008-0.031
		c6.957-32.729,32.691-58.635,65.585-65.049c8.261-1.466,16.701-1.796,25.068-1.004c-11.962-3.89-24.729-5.992-37.987-5.992
		c-19.752,0-38.413,4.667-54.944,12.956c-2.451,1.945-4.818,4.048-7.085,6.315C31.944,49.037,29.096,95.005,52.725,127.805
		L52.725,127.805z"/>
	<g>
		<path fill="#26BAEC" d="M49.77,167.061c8.268,4.573,17.391,7.789,27.066,9.362c-13.749-12.017-22.815-29.254-24.111-48.618
			c-23.629-32.8-20.781-78.768,8.731-108.279c2.267-2.268,4.634-4.37,7.085-6.315c-0.305,0.153-0.609,0.306-0.913,0.461
			C39.217,28.217,17.222,53.513,7.004,84.189c-0.359,3.12-0.549,6.291-0.549,9.509C6.456,125.309,23.947,152.775,49.77,167.061
			L49.77,167.061z"/>
		<path fill="#98CA3D" d="M102.571,206.266c9.049-2.607,17.748-6.768,25.678-12.473c0.019-0.011,0.035-0.021,0.05-0.034
			c-1.592,0.107-3.195,0.165-4.814,0.165c-17.861,0-34.178-6.604-46.648-17.501c-9.676-1.573-18.798-4.789-27.066-9.362
			C23.947,152.775,6.456,125.309,6.456,93.698c0-3.218,0.189-6.389,0.549-9.509c-0.162,0.487-0.321,0.976-0.478,1.467
			C2.77,97.43,0.74,109.977,0.74,122.999c0,19.747,4.665,38.403,12.95,54.933c1.948,2.454,4.053,4.825,6.324,7.098
			C42.381,207.396,74.197,214.445,102.571,206.266L102.571,206.266z"/>
	</g>
	<path fill="#8E2378" d="M233.279,68.071c-1.948-2.455-4.053-4.827-6.326-7.098c-22.35-22.352-54.133-29.408-82.49-21.255
		c-9.083,2.612-17.814,6.79-25.771,12.521c1.584-0.105,3.182-0.165,4.792-0.165c17.856,0,34.168,6.6,46.637,17.492
		c9.684,1.573,18.811,4.797,27.082,9.373c25.82,14.287,43.309,41.753,43.306,73.366c0.001,3.217-0.188,6.391-0.548,9.512
		c0.199-0.598,0.395-1.195,0.583-1.795c3.69-11.684,5.685-24.119,5.685-37.022C246.229,103.255,241.563,84.6,233.279,68.071
		L233.279,68.071z"/>
	<path fill="#272660" d="M136.402,7.251C103.508,13.666,77.774,39.572,70.816,72.3c-0.003,0.011-0.005,0.021-0.008,0.031
		c-0.118,0.557-0.23,1.114-0.337,1.676c-0.021,0.109-0.043,0.22-0.064,0.33c-0.09,0.482-0.176,0.966-0.258,1.45
		c-0.025,0.144-0.05,0.286-0.074,0.43c-0.008,0.047-0.014,0.094-0.021,0.141c12.018-13.757,29.262-22.826,48.637-24.12
		c7.958-5.731,16.688-9.909,25.772-12.521c28.355-8.152,60.141-1.097,82.489,21.255c2.272,2.271,4.378,4.643,6.325,7.098
		c-0.299-0.597-0.604-1.19-0.91-1.781C217.75,38.281,192.645,16.618,162.26,6.508c-0.263-0.087-0.525-0.176-0.789-0.261
		C153.104,5.455,144.663,5.785,136.402,7.251L136.402,7.251z"/>
	<path fill="#F38B22" d="M206.706,143.764c-2.617-9.012-6.772-17.671-12.462-25.57c0.105,1.589,0.165,3.191,0.165,4.807
		c0,17.856-6.603,34.172-17.497,46.644c-1.575,9.684-4.796,18.813-9.374,27.084c-14.288,25.815-41.751,43.301-73.358,43.301
		c-3.216,0-6.385-0.188-9.503-0.549c0.437,0.146,0.874,0.289,1.313,0.431c11.819,3.788,24.418,5.835,37.497,5.835
		c19.744,0,38.4-4.663,54.925-12.947c2.456-1.949,4.829-4.055,7.102-6.326C207.919,204.063,214.955,172.175,206.706,143.764
		L206.706,143.764z"/>
	<path fill="#EC362E" d="M197.203,78.939c-8.271-4.576-17.398-7.8-27.082-9.373c13.755,12.016,22.827,29.256,24.123,48.627
		c5.688,7.899,9.845,16.559,12.462,25.569c8.249,28.412,1.213,60.301-21.196,82.705c-2.271,2.273-4.644,4.379-7.101,6.327
		c0.849-0.425,1.69-0.858,2.526-1.303c27.638-14.664,49-39.578,59.024-69.677c0.358-3.119,0.549-6.293,0.548-9.512
		C240.512,120.692,223.023,93.227,197.203,78.939L197.203,78.939z"/>
</g>
</svg>
