<?xml version="1.0" encoding="utf-8"?>
<!-- Generator: Adobe Illustrator 16.0.0, SVG Export Plug-In . SVG Version: 6.00 Build 0)  -->
<!DOCTYPE svg PUBLIC "-//W3C//DTD SVG 1.1//EN" "http://www.w3.org/Graphics/SVG/1.1/DTD/svg11.dtd">
<svg version="1.1" id="Layer_1" xmlns="http://www.w3.org/2000/svg" xmlns:xlink="http://www.w3.org/1999/xlink" x="0px" y="0px"
	 width="560px" height="560px" viewBox="0 0 560 560" enable-background="new 0 0 560 560" xml:space="preserve">
<path fill="#FFC928" d="M378.6,445.015c10.247-18.513,17.455-38.947,20.979-60.62c-26.888,30.775-65.465,51.069-108.804,53.978
	c-0.033,0.024-0.072,0.051-0.111,0.076c-17.75,12.77-37.219,22.077-57.472,27.914c-63.507,18.312-134.715,2.53-184.774-47.53
	c-5.083-5.086-9.794-10.393-14.155-15.885c0.533,1.062,1.072,2.115,1.618,3.17c32.641,63.056,88.995,111.851,157.259,134.583
	c6.979,0.805,14.073,1.229,21.27,1.229C285.153,541.93,346.618,502.794,378.6,445.015L378.6,445.015z"/>
<path fill="#2D58A4" d="M121.629,290.752c-0.238-3.556-0.371-7.14-0.371-10.752c0-39.969,14.777-76.482,39.158-104.39
	c0.017-0.105,0.031-0.21,0.048-0.314c0.053-0.322,0.111-0.643,0.167-0.962c0.184-1.084,0.374-2.167,0.576-3.246
	c0.046-0.247,0.095-0.494,0.143-0.74c0.239-1.254,0.491-2.504,0.755-3.75c0.006-0.024,0.01-0.046,0.017-0.07
	C177.693,93.276,235.29,35.294,308.912,20.937c18.489-3.282,37.381-4.02,56.108-2.248C338.249,9.984,309.674,5.279,280,5.279
	c-44.208,0-85.974,10.446-122.973,28.997c-5.486,4.354-10.784,9.059-15.858,14.133C75.117,114.459,68.743,217.344,121.629,290.752
	L121.629,290.752z"/>
<g>
	<path fill="#26BAEC" d="M115.014,378.613c18.504,10.238,38.923,17.433,60.579,20.957c-30.772-26.894-51.063-65.474-53.964-108.818
		c-52.886-73.408-46.512-176.292,19.541-242.343c5.074-5.075,10.372-9.779,15.858-14.133c-0.683,0.342-1.365,0.685-2.044,1.032
		C91.395,67.862,42.166,124.477,19.299,193.137c-0.805,6.983-1.229,14.08-1.229,21.283
		C18.071,285.167,57.219,346.643,115.014,378.613L115.014,378.613z"/>
	<path fill="#98CA3D" d="M233.192,466.362c20.253-5.837,39.722-15.145,57.472-27.914c0.039-0.025,0.078-0.052,0.111-0.076
		c-3.563,0.238-7.152,0.369-10.775,0.369c-39.977,0-76.497-14.78-104.407-39.171c-21.656-3.524-42.074-10.719-60.579-20.957
		c-57.795-31.971-96.943-93.446-96.943-164.193c0-7.203,0.424-14.3,1.229-21.283c-0.362,1.091-0.72,2.184-1.069,3.282
		C9.822,222.773,5.28,250.856,5.28,280c0,44.197,10.44,85.954,28.983,122.947c4.36,5.492,9.072,10.799,14.155,15.885
		C98.478,468.893,169.686,484.674,233.192,466.362L233.192,466.362z"/>
</g>
<path fill="#8E2378" d="M525.739,157.063c-4.36-5.497-9.071-10.805-14.159-15.886c-50.021-50.028-121.159-65.82-184.626-47.574
	c-20.331,5.847-39.872,15.196-57.681,28.023c3.546-0.236,7.121-0.368,10.727-0.368c39.965,0,76.474,14.772,104.381,39.149
	c21.671,3.522,42.099,10.737,60.612,20.98c57.79,31.976,96.933,93.45,96.926,164.204c0.002,7.201-0.422,14.304-1.226,21.287
	c0.446-1.335,0.88-2.674,1.304-4.016c8.262-26.148,12.724-53.983,12.724-82.862C554.721,235.808,544.28,194.054,525.739,157.063
	L525.739,157.063z"/>
<path fill="#272660" d="M308.912,20.937c-73.622,14.358-131.219,72.34-146.792,145.591c-0.006,0.024-0.011,0.046-0.017,0.07
	c-0.264,1.246-0.516,2.495-0.755,3.75c-0.047,0.246-0.096,0.493-0.143,0.74c-0.202,1.079-0.393,2.162-0.576,3.246
	c-0.056,0.32-0.113,0.64-0.167,0.962c-0.017,0.104-0.031,0.208-0.048,0.314c26.898-30.79,65.494-51.089,108.857-53.984
	c17.809-12.828,37.35-22.177,57.681-28.023c63.467-18.246,134.605-2.454,184.626,47.574c5.088,5.082,9.799,10.39,14.159,15.886
	c-0.671-1.336-1.351-2.666-2.041-3.989C490.981,90.387,434.792,41.9,366.785,19.274c-0.587-0.196-1.175-0.394-1.765-0.585
	C346.293,16.917,327.401,17.655,308.912,20.937L308.912,20.937z"/>
<path fill="#F38B22" d="M466.264,326.472c-5.858-20.168-15.161-39.549-27.892-57.229c0.236,3.557,0.369,7.143,0.369,10.758
	c0,39.969-14.776,76.484-39.162,104.395c-3.524,21.673-10.732,42.107-20.979,60.62c-31.981,57.779-93.446,96.915-164.189,96.915
	c-7.197,0-14.291-0.425-21.27-1.229c0.977,0.324,1.955,0.646,2.937,0.961c26.454,8.478,54.652,13.06,83.923,13.06
	c44.191,0,85.944-10.438,122.931-28.979c5.498-4.363,10.808-9.074,15.892-14.161C468.978,461.435,484.727,390.063,466.264,326.472
	L466.264,326.472z"/>
<path fill="#EC362E" d="M444.993,181.387c-18.514-10.243-38.941-17.458-60.612-20.98c30.785,26.895,51.09,65.48,53.991,108.835
	c12.73,17.681,22.033,37.062,27.892,57.229c18.463,63.591,2.714,134.963-47.441,185.109c-5.084,5.087-10.394,9.798-15.892,14.161
	c1.898-0.951,3.783-1.922,5.656-2.917c61.854-32.82,109.668-88.583,132.106-155.947c0.804-6.983,1.228-14.086,1.226-21.287
	C541.926,274.837,502.783,213.363,444.993,181.387L444.993,181.387z"/>
</svg>
