<?xml version="1.0" encoding="utf-8"?>
<!-- Generator: Adobe Illustrator 16.0.0, SVG Export Plug-In . SVG Version: 6.00 Build 0)  -->
<!DOCTYPE svg PUBLIC "-//W3C//DTD SVG 1.1//EN" "http://www.w3.org/Graphics/SVG/1.1/DTD/svg11.dtd">
<svg version="1.1" id="Layer_1" xmlns="http://www.w3.org/2000/svg" xmlns:xlink="http://www.w3.org/1999/xlink" x="0px" y="0px"
	 width="560px" height="560px" viewBox="0 0 560 560" enable-background="new 0 0 560 560" xml:space="preserve">
<g>
	<path fill-rule="evenodd" clip-rule="evenodd" fill="#2A245B" d="M340.987,57.173c32.323,9.362,60.359,26.33,85.334,48.546
		c18.487,16.446,33.77,35.572,46.136,57.017c1.151,1.995,2.387,3.92,2.532,6.302c-4.921,1.22-6.836-3.018-9.336-5.569
		c-16.649-16.992-35.941-29.995-58.484-37.506c-50.649-16.876-98.441-10.766-142.927,19.153c-5.144,3.145-11.115,2.4-16.695,3.351
		c-23.651,4.034-44.242,14.332-62.702,29.392c-4.572,3.73-8.476,8.344-13.951,10.936c-4.042-1.998-2.606-5.455-1.953-8.397
		c7.438-33.485,24.022-61.857,49.348-84.769c23.294-21.073,50.507-34.719,81.936-38.986
		C313.806,54.799,327.452,53.151,340.987,57.173z"/>
	<path fill-rule="evenodd" clip-rule="evenodd" fill="#E3261F" d="M492.43,348.444c-7.657,27.578-21.255,52.105-38.838,74.464
		c-19.96,25.384-43.922,46.116-72.751,60.979c-0.571-0.514-0.877-1.154-0.92-1.92c3.773-6.926,10.28-11.485,15.203-17.455
		c20.429-24.779,32.792-52.775,36.277-84.796c4.034-37.08-4.691-70.99-24.342-102.368c-1.463-2.338-2.907-4.679-3.903-7.265
		c-2.757-17.941-6.272-35.606-14.963-51.91c-6.976-13.089-15.86-24.609-26.249-35.075c-1.68-1.692-4.404-2.885-3.23-6.11
		c2.423-1.565,4.939-0.636,7.347-0.11c29.119,6.336,54.711,19.307,76.614,39.758c23.861,22.276,39.863,49.063,47.342,80.732
		C493.978,314.139,496.103,331.21,492.43,348.444z"/>
	<path fill-rule="evenodd" clip-rule="evenodd" fill="#A0C417" d="M64.715,388.165c-19.091-34.718-27.552-72.042-27.35-111.492
		c0.115-22.62,3.577-44.723,10.171-66.348c0.795-0.217,1.393,0.035,1.797,0.751c2.163,10.135,0.804,20.486,2.138,30.75
		c4.303,33.111,17.271,62,39.751,86.68c17.958,19.717,39.37,34.137,64.501,43.178c8.463,3.043,17.395,4.115,25.868,6.997
		c11.269,6.956,21.481,15.488,33.838,20.854c16.844,7.313,34.156,11.672,52.546,11.711c3.595,0.007,7.371-0.787,10.687,1.474
		c0.807,4.292-2.908,5.339-5.351,6.976c-18.99,12.734-40.106,20.295-62.523,23.71c-41.972,6.396-80.545-3.111-115.795-26.538
		C83.247,409.061,73.228,399.4,64.715,388.165z"/>
	<path fill-rule="evenodd" clip-rule="evenodd" fill="#3EB8EA" d="M180.887,379.696c-63.656-9.392-118.676-63.268-129.668-126.783
		c-2.438-14.086-3.166-28.214-2.485-42.455c0.514-1.777,0.319-3.656,0.786-5.439c11.382-35.937,31.325-66.563,57.999-92.927
		c14.75-14.578,31.312-26.822,49.479-36.849c1.976-1.09,4.139-1.844,6.214-2.755c0.126,4.902-3.926,7.101-6.8,9.766
		c-17.184,15.945-29.837,35.05-37.833,56.854c-17.599,47.991-13.101,94.225,13.054,138.244c0.937,1.577,1.934,3.121,2.52,4.17
		c0.177-3.807-3.234-8.752,2.59-12.033c2.349,2.459,1.836,5.586,1.768,8.491c-0.878,37.176,12.828,68.41,38.415,94.862
		C178.784,374.765,181.231,376.453,180.887,379.696z"/>
	<path fill-rule="evenodd" clip-rule="evenodd" fill="#EF8700" d="M404.628,270.043c14.006,20.72,23.726,43.105,27.691,67.998
		c4.807,30.17,1.025,59.152-10.789,87.15c-9.289,22.012-23.17,40.81-40.821,56.858c-1.163,1.624-2.437,3.136-4.241,4.096
		c-24.789,13.667-51.57,21.099-79.47,24.367c-33.392,3.912-66.226,0.778-98.227-9.879c1.053-2.611,3.277-1.995,5.279-1.873
		c31.552,1.93,61.318-4.516,88.524-20.568c42.114-24.849,67.744-61.656,77.137-109.698c0.797-2.963,2.755-5.209,4.545-7.592
		c17.98-23.904,28.627-50.347,28.083-80.73C402.278,276.735,401.029,272.764,404.628,270.043z"/>
	<path fill-rule="evenodd" clip-rule="evenodd" fill="#911C70" d="M492.43,348.444c0.342-19.041,0.073-38.098-5.649-56.447
		c-18.909-60.614-59.224-98.548-121.119-113.296c-2.212-0.526-4.484-0.792-6.729-1.18c-3.503,0.913-5.501-1.789-7.724-3.493
		c-23.667-18.139-50.648-26.635-80.171-27.907c-2.676-0.115-5.56,0.428-7.697-1.921c17.149-13.884,37.214-21.742,58.44-25.875
		c45.57-8.872,87.8-0.339,125.824,26.964c7.666,5.504,14.535,11.875,21.109,18.612c1.879,1.928,3.344,4.458,6.275,5.137
		c15.563,24.876,22.898,52.55,26.652,81.208c4.214,32.173,1.411,63.956-7.87,95.104C493.452,346.42,492.882,347.414,492.43,348.444z
		"/>
	<path fill-rule="evenodd" clip-rule="evenodd" fill="#FECA00" d="M370.874,368.509c-0.951,13.222-5.379,25.548-10.852,37.351
		c-23.172,49.946-61.916,80.898-115.752,92.175c-13.957,2.924-28.397,5.194-42.868,2.003c-0.792-0.175-1.746,0.383-2.628,0.598
		c-59.588-19.729-104.348-57.128-134.058-112.469c8.685,6.383,15.167,15.132,23.79,21.671
		c23.515,17.833,49.674,28.587,79.007,32.341c30.925,3.956,60.105-1.751,88.105-14.455c8.262-3.749,16.397-8.123,23.194-14.428
		c2.839-2.855,6.675-2.736,10.22-3.237c28.169-3.979,52.315-16.189,73.126-35.374C364.777,372.269,366.672,368.726,370.874,368.509z
		"/>
	<path fill-rule="evenodd" clip-rule="evenodd" fill="#314D9A" d="M136.295,270.111c-1.998,4.374-0.099,9.079-1.294,14.141
		c-4.215-3.248-6.322-7.716-8.585-11.895c-34.981-64.552-23.939-139.112,28.177-191.007c2.918-2.905,5.743-5.903,8.616-8.86
		c17.891-10.783,37.529-17.091,57.737-21.342c39.302-8.266,78.381-6.92,116.966,4.688c1.063,0.32,2.054,0.887,3.077,1.338
		c-18.804-1.728-37.44-0.532-55.678,4.282c-41.163,10.861-72.604,34.943-95.078,70.953c-9.443,15.129-15.792,31.492-19.688,48.858
		c-0.554,2.469-1.526,4.861,0.279,7.197c1.257,3.087-1.331,4.588-2.814,6.394c-16.741,20.377-26.415,43.714-29.516,69.846
		C138.259,266.691,138.536,268.923,136.295,270.111z"/>
	<path fill-rule="evenodd" clip-rule="evenodd" fill="#8FCA87" d="M49.52,205.019c0.335,1.899,0.913,3.833-0.787,5.439
		c0.001,0-0.61,0.046-0.61,0.046s-0.589-0.172-0.587-0.177C48.198,208.557,48.858,206.788,49.52,205.019z"/>
	<path fill-rule="evenodd" clip-rule="evenodd" fill="#E63A2B" d="M376.468,486.146c0.944-1.851,2.335-3.24,4.241-4.096
		c0.043,0.612,0.089,1.225,0.132,1.838C379.659,485.174,378.229,485.982,376.468,486.146z"/>
</g>
</svg>
