<?xml version="1.0" encoding="utf-8"?>
<!-- Generator: Adobe Illustrator 16.0.0, SVG Export Plug-In . SVG Version: 6.00 Build 0)  -->
<!DOCTYPE svg PUBLIC "-//W3C//DTD SVG 1.1//EN" "http://www.w3.org/Graphics/SVG/1.1/DTD/svg11.dtd">
<svg version="1.1" id="Layer_1" xmlns="http://www.w3.org/2000/svg" xmlns:xlink="http://www.w3.org/1999/xlink" x="0px" y="0px"
	 width="332px" height="250px" viewBox="0 0 332 250" enable-background="new 0 0 332 250" xml:space="preserve">
<g>
	<path fill="#FFA600" d="M29.626,37.227c0,19.957,16.952,36.197,37.783,36.197c20.827,0,37.773-16.24,37.773-36.197
		c0-19.966-16.946-36.209-37.773-36.209C46.578,1.017,29.629,17.261,29.626,37.227 M38.39,37.227
		C38.393,21.892,51.411,9.416,67.409,9.416c15.994,0,29.009,12.476,29.009,27.811c0,15.329-13.015,27.798-29.009,27.798
		C51.408,65.024,38.39,52.555,38.39,37.227"/>
	<path fill="#FFA600" d="M71.046,183.66l37.275-14.52c1.653-0.646,2.742-2.234,2.742-4.004V142.46h26.926l-27.826-54.835
		c-3.211-6.598-10.292-11.034-17.619-11.034H46.247c-7.431,0-14.348,4.33-17.588,10.98L0.982,142.463h26.903v22.676
		c0,1.769,1.09,3.355,2.743,4.002l37.278,14.521c0.066,0.024,0.138,0.034,0.204,0.062c0.08,0.022,0.161,0.045,0.242,0.066
		c0.371,0.097,0.748,0.17,1.124,0.17c0.377,0,0.754-0.073,1.125-0.17c0.08-0.021,0.16-0.044,0.241-0.066
		C70.909,183.693,70.978,183.686,71.046,183.66z M123.961,133.865h-12.897v-25.417L123.961,133.865z M27.885,133.867H14.97
		l12.915-25.615V133.867z M36.39,91.377c1.836-3.758,5.703-6.191,9.856-6.191h46.299c4.031,0,8.083,2.545,9.89,6.252l5.338,10.518
		c-0.852-0.209-1.752-0.186-2.591,0.144l-35.706,13.903L33.768,102.1c-0.882-0.346-1.834-0.363-2.726-0.112L36.39,91.377z
		 M73.789,173.359v-49.808l28.648-11.156v49.811L73.789,173.359z M36.512,112.396l28.65,11.156v49.808l-28.65-11.152V112.396z"/>
</g>
<g>
	<path fill="#FFA600" d="M227.782,37.227c0,19.957,16.864,36.197,37.597,36.197c20.729,0,37.596-16.24,37.596-36.197
		c0-19.966-16.865-36.209-37.596-36.209C244.65,1.017,227.782,17.261,227.782,37.227 M236.506,37.227
		c0-15.335,12.956-27.811,28.873-27.811c15.922,0,28.873,12.476,28.873,27.811c0,15.329-12.951,27.798-28.873,27.798
		C249.459,65.024,236.506,52.555,236.506,37.227"/>
	<path fill="#FFA600" d="M304.656,87.623c-3.209-6.596-10.29-11.032-17.617-11.032h-46.297c-7.434,0-14.348,4.33-17.588,10.98
		l-27.68,54.892h26.901v22.676c0,1.769,1.092,3.36,2.745,4.002l37.277,14.521c0.063,0.024,0.139,0.039,0.205,0.058
		c0.078,0.026,0.16,0.049,0.242,0.07c0.367,0.098,0.746,0.168,1.122,0.168c0.382,0,0.755-0.07,1.126-0.168
		c0.077-0.021,0.161-0.044,0.24-0.07c0.068-0.019,0.139-0.031,0.202-0.058l37.278-14.521c1.652-0.642,2.744-2.233,2.744-4.002
		v-22.676h26.921L304.656,87.623z M231.004,112.396l28.652,11.156v49.808l-28.652-11.152V112.396z M268.283,173.359v-49.808
		l28.65-11.156v49.811L268.283,173.359z M299.678,102.1l-35.707,13.903L228.266,102.1c-0.881-0.346-1.838-0.363-2.729-0.112
		l5.354-10.611c1.832-3.761,5.699-6.191,9.853-6.191h46.297c4.03,0,8.085,2.542,9.89,6.249l5.338,10.521
		C301.415,101.747,300.518,101.77,299.678,102.1z M222.377,133.867h-12.911l12.911-25.615V133.867z M318.457,133.865h-12.896
		v-25.417L318.457,133.865z"/>
</g>
<g>
	<path fill="#FFA600" d="M129.157,104.385c0,19.932,16.958,36.143,37.8,36.143c20.836,0,37.79-16.21,37.79-36.143
		c0-19.94-16.953-36.161-37.79-36.161C146.115,68.224,129.161,84.445,129.157,104.385 M195.979,104.385
		c0,15.303-13.021,27.756-29.021,27.756c-16.007,0-29.032-12.453-29.032-27.756c0.003-15.316,13.026-27.775,29.032-27.775
		C182.958,76.61,195.979,89.069,195.979,104.385"/>
	<path fill="#FFA600" d="M206.963,154.617c-3.162-6.465-10.126-10.803-17.332-10.803h-45.535c-7.311,0-14.111,4.235-17.294,10.754
		l-27.223,53.77h26.459v22.217c0,1.733,1.072,3.289,2.699,3.92l36.662,14.221c0.065,0.027,0.133,0.031,0.202,0.055
		c0.079,0.029,0.157,0.047,0.237,0.07c0.364,0.1,0.732,0.164,1.105,0.164c0.371,0,0.74-0.064,1.106-0.164
		c0.078-0.023,0.156-0.041,0.237-0.07c0.063-0.021,0.133-0.027,0.199-0.055l36.66-14.221c1.627-0.631,2.701-2.187,2.701-3.92
		v-22.217h26.478L206.963,154.617z M220.529,199.916h-12.682V175.02L220.529,199.916z M126.038,199.916h-12.702l12.702-25.088
		V199.916z M134.41,158.296c1.802-3.687,5.605-6.063,9.686-6.063h45.535c3.969,0,7.953,2.492,9.729,6.125l5.252,10.303
		c-0.84-0.203-1.725-0.184-2.551,0.142l-35.115,13.62l-35.12-13.62c-0.868-0.341-1.803-0.354-2.678-0.108L134.41,158.296z
		 M134.522,178.885l28.179,10.928v48.799l-28.179-10.932V178.885z M171.186,238.609v-48.799l28.178-10.927v48.796L171.186,238.609z"
		/>
</g>
</svg>
