<?xml version="1.0" encoding="utf-8"?>
<!-- Generator: Adobe Illustrator 16.0.0, SVG Export Plug-In . SVG Version: 6.00 Build 0)  -->
<!DOCTYPE svg PUBLIC "-//W3C//DTD SVG 1.1//EN" "http://www.w3.org/Graphics/SVG/1.1/DTD/svg11.dtd">
<svg version="1.1" id="Layer_1" xmlns="http://www.w3.org/2000/svg" xmlns:xlink="http://www.w3.org/1999/xlink" x="0px" y="0px"
	 width="240px" height="200px" viewBox="130 150 240 200" enable-background="new 130 150 240 200" xml:space="preserve">
<g>
	<path fill="#BABABA" d="M174,337c0,3.3-2.7,6-6,6h-14c-3.3,0-6-2.7-6-6V162c0-3.3,2.7-6,6-6h14c3.3,0,6,2.7,6,6V337z"/>
</g>
<g>
	<path fill="#BABABA" d="M353,337c0,3.3-2.7,6-6,6h-14c-3.3,0-6-2.7-6-6V162c0-3.3,2.7-6,6-6h14c3.3,0,6,2.7,6,6V337z"/>
</g>
<g>
	<g>
		<path fill="#FFC627" d="M363,243c0,5.5-4.5,10-10,10H148c-5.5,0-10-4.5-10-10v-62c0-5.5,4.5-10,10-10h205c5.5,0,10,4.5,10,10V243z
			"/>
	</g>
	<polygon fill="#494949" points="171.273,171.149 138,204.463 138,241 208.075,171 	"/>
	<polygon fill="#494949" points="236.998,171 157.345,253 192,253 274.329,171 	"/>
	<polygon fill="#494949" points="306.735,171 224.6,253 261,253 342.792,171 	"/>
	<polygon fill="#494949" points="363,183.119 293.063,253 327,253 363,217.364 	"/>
</g>
</svg>
