<?xml version="1.0" encoding="utf-8"?>
<!-- Generator: Adobe Illustrator 16.0.3, SVG Export Plug-In . SVG Version: 6.00 Build 0)  -->
<!DOCTYPE svg PUBLIC "-//W3C//DTD SVG 1.1//EN" "http://www.w3.org/Graphics/SVG/1.1/DTD/svg11.dtd">
<svg version="1.1" id="Capa_1" xmlns="http://www.w3.org/2000/svg" xmlns:xlink="http://www.w3.org/1999/xlink" x="0px" y="0px"
	 width="25px" height="25px" viewBox="237.5 237.5 25 25" enable-background="new 237.5 237.5 25 25" xml:space="preserve">
<g id="Layer_1" display="none">
</g>
<g id="Layer_2">
	<path fill="#FFA600" d="M258.031,259.824h-18.415c-0.306,0-0.582-0.129-0.755-0.354c-0.173-0.224-0.229-0.522-0.152-0.82
		l2.411-9.26c0.139-0.537,0.684-0.958,1.239-0.958h9.678c0.172,0,0.376-0.156,0.422-0.319l0.067-0.246
		c0.146-0.532,0.692-0.948,1.246-0.948h7.089c0.303,0,0.581,0.128,0.756,0.352c0.176,0.225,0.238,0.52,0.168,0.815l-2.528,10.767
		C259.13,259.396,258.59,259.824,258.031,259.824z M242.359,249.29c-0.168,0-0.368,0.154-0.409,0.317l-2.414,9.259
		c-0.012,0.048-0.005,0.073,0,0.08c0.008,0.007,0.029,0.021,0.077,0.021h18.416c0.163,0,0.354-0.152,0.393-0.311l2.528-10.769
		c0.01-0.037,0.008-0.071-0.004-0.088c-0.013-0.018-0.046-0.027-0.085-0.027h-7.089c-0.171,0-0.375,0.156-0.421,0.319l-0.067,0.246
		c-0.146,0.531-0.693,0.949-1.247,0.949h-9.678V249.29z"/>
	<path fill="#FFA600" d="M258.824,247.139v-2.096c0-0.125-0.108-0.231-0.234-0.231h-2.602v-0.857h2.602
		c0.6,0,1.088,0.486,1.09,1.085v2.099H258.824z"/>
	<path fill="#FFA600" d="M238.76,259.208l-0.573-12.377c-0.007-0.29,0.101-0.563,0.303-0.771s0.486-0.328,0.775-0.328h1.251v0.857
		h-1.251c-0.083,0-0.138,0.043-0.162,0.066c-0.024,0.025-0.063,0.075-0.06,0.152l0.308,12.577L238.76,259.208z"/>
	<path fill="#FFA600" d="M240.976,253.306h-0.854v-11.305c0-0.592,0.488-1.076,1.085-1.076h14.124c0.599,0,1.088,0.483,1.09,1.08
		l0.019,5.34l-0.856,0.002l-0.02-5.34c0-0.125-0.105-0.226-0.232-0.226h-14.124c-0.13,0-0.231,0.096-0.231,0.219V253.306z"/>
	<rect x="243.281" y="243.625" fill="#FFA600" width="10.536" height="0.857"/>
	<rect x="243.349" y="245.403" fill="#FFA600" width="10.534" height="0.857"/>
</g>
</svg>
