<?xml version="1.0" encoding="utf-8"?>
<!-- Generator: Adobe Illustrator 16.0.0, SVG Export Plug-In . SVG Version: 6.00 Build 0)  -->
<!DOCTYPE svg PUBLIC "-//W3C//DTD SVG 1.1//EN" "http://www.w3.org/Graphics/SVG/1.1/DTD/svg11.dtd">
<svg version="1.1" id="Layer_1" xmlns="http://www.w3.org/2000/svg" xmlns:xlink="http://www.w3.org/1999/xlink" x="0px" y="0px"
	 width="250px" height="250px" viewBox="-37 -1.5 250 250" enable-background="new -37 -1.5 250 250" xml:space="preserve">
<path fill="#FFA600" d="M84.745,0.459C41.397,2.123,5.572,37.554,3.192,81.125c-1.441,26.304,8.951,51.398,28.502,68.848
	c7.926,7.064,12.473,17.504,12.473,28.635v35.619c0,17.295,13.98,31.367,31.164,31.367h25.458c17.186,0,31.17-14.072,31.17-31.367
	v-36.31c0-10.623,4.648-20.906,12.757-28.208c18.015-16.219,28.345-39.458,28.345-63.757c0-23.469-9.252-45.361-26.055-61.641
	C130.208,8.036,108.1-0.415,84.745,0.459z M123.465,177.917v14.435h-11.486v-19.174h-8.422v-60.292h-4.242H95.07v60.292H78.73
	v-60.292h-4.243h-4.243v60.292h-7.771v19.174h-9.821v-13.744c0-13.575-5.583-26.34-15.326-35.034
	c-17.603-15.704-26.956-38.292-25.66-61.978C13.812,42.385,46.05,10.494,85.07,9c1.009-0.038,2.012-0.061,3.014-0.061
	c19.909,0,38.641,7.579,53.029,21.528c15.131,14.655,23.461,34.36,23.461,55.485c0,21.87-9.305,42.788-25.522,57.391
	C129.148,152.261,123.465,164.864,123.465,177.917z M121.727,222.98H54.396c-0.878-2.114-1.437-4.391-1.642-6.771h70.612
	C123.159,218.591,122.602,220.866,121.727,222.98z M115.541,231.527c-3.971,3.432-9.118,5.522-14.753,5.522H75.33
	c-5.632,0-10.779-2.092-14.747-5.522H115.541z M52.652,207.666v-6.771h9.821h49.505h11.485v6.771H52.652z M70.966,192.348h32.526
	v-10.625H70.966V192.348z"/>
<path fill="#FFA600" d="M79.824,65.182c-6.256,4.549-7.649,13.332-3.104,19.587c2.74,3.768,7.021,5.772,11.358,5.772
	c2.857,0,5.74-0.873,8.222-2.67c6.255-4.55,7.646-13.332,3.104-19.584C94.861,62.038,86.073,60.645,79.824,65.182 M91.423,81.151
	c-2.549,1.854-6.138,1.286-7.986-1.266c-1.855-2.548-1.29-6.13,1.265-7.986c1.01-0.732,2.189-1.089,3.351-1.089
	c1.771,0,3.515,0.821,4.634,2.357C94.536,75.716,93.971,79.298,91.423,81.151"/>
<path fill="#FFA600" d="M116.563,72.795l-4.572-1.466c-0.331-1.475-0.797-2.905-1.401-4.285l2.819-3.84
	c0.955-1.3,1.342-2.886,1.086-4.47s-1.118-2.973-2.42-3.911l-10.453-7.512c-2.707-1.944-6.5-1.347-8.454,1.315l-2.835,3.863
	c-1.514-0.141-3.033-0.138-4.543-0.003l-2.825-3.847c-1.961-2.672-5.76-3.269-8.47-1.328l-10.44,7.512
	c-1.306,0.936-2.167,2.318-2.426,3.892c-0.262,1.584,0.118,3.18,1.076,4.479l2.829,3.854c-0.601,1.382-1.066,2.81-1.402,4.278
	l-4.562,1.465c-1.545,0.495-2.797,1.555-3.534,2.979c-0.738,1.43-0.866,3.055-0.367,4.581l3.991,12.154
	c0.498,1.523,1.57,2.762,3.014,3.49c1.443,0.728,3.083,0.859,4.625,0.361l4.566-1.468c1.143,0.993,2.372,1.88,3.681,2.64v4.757
	c0,3.308,2.72,5.999,6.059,5.999H94.52c3.342,0,6.061-2.691,6.061-5.999v-4.757c0.652-0.38,1.285-0.795,1.904-1.236
	c0.613-0.444,1.207-0.913,1.774-1.404l4.566,1.468c1.538,0.498,3.187,0.367,4.629-0.364c1.442-0.725,2.51-1.967,3.012-3.487
	l3.987-12.154c0.504-1.526,0.369-3.151-0.364-4.581C119.352,74.347,118.096,73.287,116.563,72.795z M105.484,86.364
	c-2.17-0.693-4.531-0.125-6.168,1.487c-0.582,0.571-1.211,1.102-1.871,1.578c-0.668,0.481-1.377,0.91-2.103,1.28
	c-2.062,1.044-3.338,3.097-3.338,5.357v3.735h-7.893v-3.739c0-2.26-1.277-4.316-3.339-5.36c-1.469-0.741-2.8-1.695-3.965-2.845
	c-1.641-1.618-4.01-2.19-6.182-1.491l-3.595,1.156l-2.436-7.43l3.598-1.152c2.168-0.702,3.742-2.539,4.113-4.792
	c0.262-1.619,0.772-3.17,1.513-4.62c1.047-2.047,0.865-4.448-0.473-6.274l-2.228-3.03l6.385-4.591l2.222,3.03
	c1.341,1.823,3.595,2.743,5.881,2.391c1.629-0.252,3.279-0.252,4.912,0c2.289,0.352,4.532-0.565,5.875-2.391l2.225-3.03l6.388,4.591
	l-2.222,3.021c-1.342,1.833-1.525,4.236-0.479,6.286c0.739,1.446,1.252,2.995,1.51,4.607c0.367,2.26,1.943,4.102,4.115,4.801
	l3.596,1.152l-2.439,7.426L105.484,86.364z"/>
</svg>
