<?xml version="1.0" encoding="utf-8"?>
<!-- Generator: Adobe Illustrator 16.0.0, SVG Export Plug-In . SVG Version: 6.00 Build 0)  -->
<!DOCTYPE svg PUBLIC "-//W3C//DTD SVG 1.1//EN" "http://www.w3.org/Graphics/SVG/1.1/DTD/svg11.dtd">
<svg version="1.1" id="Capa_1" xmlns="http://www.w3.org/2000/svg" xmlns:xlink="http://www.w3.org/1999/xlink" x="0px" y="0px"
	 width="1000px" height="1000px" viewBox="0 0 1000 1000" enable-background="new 0 0 1000 1000" xml:space="preserve">
<path fill="#FFA600" d="M500.762,0C224.199,0,0,224.198,0,500.762s224.199,500.762,500.762,500.762
	c276.563,0,500.764-224.198,500.764-500.762C1001.524,224.198,777.325,0,500.762,0z M299.864,730.335h-84.783V270.626h84.783
	V730.335z M614.144,696.431c-24.936,27.578-64.14,41.563-116.521,41.563c-93.042,0-145.53-53.452-156.007-158.875l-0.518-5.202
	l82.955-9.802l0.732,5.149c7.805,54.839,32.331,81.496,74.98,81.496c20.991,0,37.612-5.453,49.402-16.21
	c11.816-10.78,17.56-23.767,17.56-39.702c0-9.137-1.99-16.938-5.922-23.184c-3.946-6.273-10.137-11.549-18.394-15.68
	c-8.84-4.419-31.03-12.08-65.953-22.77c-32.101-9.708-56.064-20.496-71.208-32.058c-15.321-11.692-27.653-27.228-36.654-46.172
	c-8.979-18.894-13.53-39.485-13.53-61.206c0-25.309,5.851-48.436,17.39-68.739c11.594-20.414,27.849-36.058,48.312-46.495
	c20.276-10.338,45.516-15.58,75.017-15.58c44.51,0,79.867,12.354,105.091,36.721c25.215,24.371,38.746,59.507,40.218,104.434
	l0.171,5.215l-84.548,4.525l-0.66-4.866c-3.077-22.679-9.604-38.585-19.393-47.276c-9.771-8.66-24.143-13.052-42.717-13.052
	c-18.716,0-33.186,3.839-43.002,11.41c-9.527,7.35-14.159,16.159-14.159,26.929c0,10.676,4.206,19.437,12.855,26.782
	c9.19,7.811,31.302,16.718,65.723,26.476c37.81,10.958,65.605,22.717,82.647,34.957c17.31,12.434,30.711,28.694,39.836,48.331
	c9.066,19.504,13.662,43.392,13.662,70.995C651.512,634.715,638.939,668.993,614.144,696.431z M785.983,730.335H701.2V270.626
	h84.783V730.335L785.983,730.335z"/>
</svg>
