<?xml version="1.0" encoding="utf-8"?>
<!-- Generator: Adobe Illustrator 16.0.0, SVG Export Plug-In . SVG Version: 6.00 Build 0)  -->
<!DOCTYPE svg PUBLIC "-//W3C//DTD SVG 1.1//EN" "http://www.w3.org/Graphics/SVG/1.1/DTD/svg11.dtd">
<svg version="1.1" id="Capa_1" xmlns="http://www.w3.org/2000/svg" xmlns:xlink="http://www.w3.org/1999/xlink" x="0px" y="0px"
	 width="500px" height="500px" viewBox="0 0 500 500" enable-background="new 0 0 500 500" xml:space="preserve">
<rect x="221.226" y="88.705" transform="matrix(0.7071 0.7071 -0.7071 0.7071 147.5961 -138.7651)" fill="#FFA600" width="40.149" height="40.148"/>
<path fill="#FFA600" d="M237.029,385.722c4.937,1.561,14.651,4.19,24.182,4.19c10.896,0,19.573-2.895,25.805-8.587l3.466-4.016
	c10.862-0.895,19.108-4.653,23.878-10.901c2.433-3.188,4.833-8.155,4.574-15.192c8.087,0.632,15.296-1.343,20.465-5.587
	c4.818-3.945,7.592-9.021,8.114-14.69c7.301,0.424,14.75-1.91,20.068-6.299c6.348-5.298,9.207-13.185,7.851-21.63l-0.88,0.131
	c-2.344,1.037-4.874,1.642-7.483,1.642c-0.759,0-1.515-0.047-2.261-0.144l-2.071,0.316c0.675,4.213-0.499,7.617-3.464,10.099
	c-3.796,3.141-10.471,4.164-15.141,2.56l-0.616-0.193c-0.664-0.31-1.683-0.898-2.433-1.313c-0.349-0.188-0.651-0.352-0.904-0.493
	l-0.004,0.012l-51.676-31.244l-3.376,5.353l-3.379,5.342l51.675,31.241l3.383-5.351l-3.392,5.368
	c0.394,0.285,0.913,0.72,1.233,1.064c0.513,3.538-0.584,6.2-3.506,8.595c-3.492,2.872-9.842,3.496-16.466,1.809
	c-0.231-0.075-0.71-0.31-0.974-0.474l-0.493-0.507l-29.03-18.159l-3.456,5.298l-3.46,5.298l27.643,17.29
	c0.166,0.194,0.342,0.404,0.466,0.564c1.308,4.965,0.874,8.925-1.306,11.769c-3.4,4.449-10.907,5.627-15.005,5.93l-0.396,0.031
	l-8.605-4.781l-21.19-11.797l-3.177,5.466l-3.176,5.465l18.353,10.21l6.311,3.511c-3.759,2.899-9.077,4.417-15.972,4.417
	c-5.672,0-13.044-1.305-20.23-3.576c-0.137-0.042-0.271-0.091-0.412-0.139c0.738-2.027,1.17-4.115,1.295-6.208
	c0.465-7.998-3.439-16.011-10.879-20.519c-4.202-2.542-9.011-3.646-13.848-3.28c0-7.563-3.853-14.952-10.895-19.213
	c-3.886-2.354-8.293-3.495-12.752-3.363c0.516-8.049-3.386-16.109-10.866-20.633c-5.232-3.17-11.418-4.148-17.413-2.775
	c-3.237,0.747-6.198,2.161-8.752,4.085c-1.892-3.554-4.708-6.571-8.278-8.727c-5.166-3.132-11.251-4.123-17.18-2.818
	c-0.078,0.016-0.152,0.024-0.229,0.042c-2.126,0.491-4.125,1.265-5.975,2.276c-4.536-6.207-7.523-11.106-9.131-13.938l43.592-80.722
	c3.993,1.962,9.914,4.547,17.712,7.12c3.539-3.78,6.871-7.115,10.08-10.115c-17.562-5.06-26.731-10.781-26.859-10.864l-5.465-3.538
	l-26.39,47.754l-27.119,50.215l1.375,2.848c0.469,0.967,4.479,9.003,12.965,20.455l-3.67,5.684l-9.795,15.178
	c-6.681,10.583-3.327,24.504,7.483,31.039c3.648,2.208,7.833,3.372,12.107,3.372c0.285,0,0.561-0.044,0.847-0.052
	c-0.179,2.296-0.012,4.614,0.543,6.915c1.417,5.876,5.071,10.844,10.312,14.01c3.647,2.204,7.837,3.371,12.107,3.371
	c5.405,0,10.459-1.834,14.489-5.034c1.889,3.346,4.621,6.187,8.031,8.253c3.648,2.209,7.838,3.37,12.108,3.37
	c2.475,0,4.864-0.414,7.135-1.135c1.563,5.456,5.083,10.082,10.04,13.076c3.644,2.205,7.829,3.369,12.104,3.369
	c8.056,0,15.389-3.991,19.569-10.613l1.524-2.338l3.556-5.452C235.042,385.044,236.009,385.398,237.029,385.722 M209.391,390.55
	c-1.884,0-3.734-0.518-5.35-1.489c-2.317-1.406-3.931-3.604-4.563-6.207c-0.621-2.593-0.18-5.266,1.203-7.455l9.505-14.567
	c1.433-2.268,3.683-3.857,6.333-4.47c0.786-0.175,1.576-0.268,2.361-0.268c1.87,0,3.714,0.512,5.339,1.497
	c4.785,2.89,6.271,9.054,3.366,13.657l-9.509,14.569C216.208,388.781,212.958,390.55,209.391,390.55 M170.201,367.552
	c-0.625-2.593-0.184-5.271,1.218-7.49l14.03-21.728c1.435-2.267,3.684-3.857,6.334-4.465c0.784-0.179,1.571-0.272,2.356-0.272
	c1.876,0,3.714,0.511,5.35,1.499c4.779,2.891,6.266,9.057,3.339,13.679l-2.83,4.391c-0.237,0.323-0.481,0.642-0.691,0.981
	l-9.503,14.564c-0.377,0.598-0.719,1.208-1.035,1.83c-1.87,2.939-5.105,4.698-8.657,4.698c-1.884,0-3.734-0.518-5.349-1.498
	C172.445,372.34,170.826,370.142,170.201,367.552 M145.485,368.653c-1.883,0-3.735-0.518-5.35-1.5
	c-2.318-1.404-3.937-3.6-4.563-6.196c-0.623-2.592-0.183-5.267,1.235-7.51l25.016-39.12c1.435-2.26,3.682-3.851,6.339-4.466
	c0.784-0.177,1.571-0.263,2.359-0.263c1.874,0,3.709,0.506,5.343,1.493c4.782,2.896,6.265,9.059,3.327,13.713l-2.847,4.448
	c-0.643,0.768-1.25,1.559-1.791,2.415l-14.031,21.728c-0.634,1.005-1.156,2.053-1.619,3.126l-4.732,7.395
	C152.299,366.883,149.052,368.653,145.485,368.653 M116.328,342.91c-4.785-2.89-6.271-9.056-3.346-13.687l14.403-22.31
	c1.429-2.265,3.679-3.858,6.336-4.459c0.778-0.184,1.571-0.274,2.355-0.274c1.871,0,3.712,0.512,5.346,1.5
	c2.316,1.402,3.936,3.601,4.562,6.193c0.604,2.504,0.189,5.075-1.097,7.254l-3.897,6.087l-10.622,16.46
	c-1.875,2.969-5.123,4.733-8.689,4.733C119.791,344.403,117.942,343.892,116.328,342.91"/>
<path fill="#FFA600" d="M351.588,189.008c-2.044-3.837-6.033-6.219-10.416-6.219c-0.833,0-1.68,0.091-2.599,0.284
	c-2.694,0.604-5.916,0.914-9.575,0.914c-8.188,0-17.797-1.531-28.66-4.576c-0.222-0.063-0.451-0.111-0.6-0.145
	c-11.653-2.508-23.736-3.778-35.918-3.778c-24.956,0-48.378,5.465-59.647,13.906c-10.444,7.771-21.853,19.468-36.95,37.868
	c-5.587,6.694-5.663,15.184-0.222,22.143c4.501,5.789,12.161,9.539,19.514,9.539c2.869,0,5.561-0.555,7.96-1.643
	c10.492-4.639,36.104-20.264,42.441-24.463c0.149-0.096,1.551-0.99,5.78-0.99c3.575,0,7.312,0.638,9.396,1.111l110.197,64.616h0.004
	c1.814,1.063,3.892,1.623,5.997,1.623c2.805,0,5.522-0.994,7.655-2.799l15.479-13.102c4.208-3.554,5.338-9.422,2.765-14.255
	L351.588,189.008z M368.185,286.263L257.827,221.56l-0.829-0.464l-0.861-0.227c-3.036-0.797-8.373-1.721-13.441-1.721
	c-5.586,0-10.015,1.112-13.042,3.225c-6.203,4.102-31.16,19.242-40.466,23.36c-3.245,1.47-9.308-0.595-12.011-4.078
	c-1.803-2.306-1.815-4.19-0.015-6.356c14.444-17.603,25.152-28.636,34.751-35.77c8.913-6.678,30.256-11.346,51.902-11.346
	c11.26,0,22.433,1.181,33.126,3.475c11.9,3.335,22.686,5.026,32.055,5.026c4.349,0,8.311-0.367,11.583-1.068l41.842,78.586
	L368.185,286.263z"/>
<path fill="#FFA600" d="M160.345,157.954l-66.51-35.88L9.573,277.783l41.76,22.532c4.24,2.281,8.812,3.369,13.324,3.369
	c10.012,0,19.723-5.34,24.801-14.744L160.345,157.954z M57.411,289.075l-30.506-16.46l72.099-133.238l44.015,23.742l-64.8,119.746
	C74.19,290.306,64.859,293.091,57.411,289.075z"/>
<path fill="#FFA600" d="M344.576,157.576l71.192,130.987c5.109,9.403,14.855,14.745,24.914,14.745c4.528,0,9.118-1.083,13.379-3.375
	L496,277.407l-84.629-155.71L344.576,157.576z M427.062,282.489l-65.084-119.746l44.205-23.741l72.416,133.238l-30.642,16.456
	C440.48,292.711,431.104,289.928,427.062,282.489z"/>
</svg>
