<?xml version="1.0" encoding="utf-8"?>
<!-- Generator: Adobe Illustrator 16.0.0, SVG Export Plug-In . SVG Version: 6.00 Build 0)  -->
<!DOCTYPE svg PUBLIC "-//W3C//DTD SVG 1.1//EN" "http://www.w3.org/Graphics/SVG/1.1/DTD/svg11.dtd">
<svg version="1.1" id="Capa_1" xmlns="http://www.w3.org/2000/svg" xmlns:xlink="http://www.w3.org/1999/xlink" x="0px" y="0px"
	 width="500px" height="500px" viewBox="0 0 500 500" enable-background="new 0 0 500 500" xml:space="preserve">
<g id="Capa_2_1_">
	<g>
		<path fill="#FFA600" d="M124.55,298.75c-6.45-8.8-10.2-15.65-11.95-19.1c6.85-12.65,37.1-68.45,47.7-88
			c12,6.35,23.05,8.55,36.55,9.15c4.2-4.15,8.25-7.7,12.15-10.75c-0.05,0-0.1-0.05-0.15-0.05l-1.15-0.5h-1.2
			c-21.25,0-32.3-2.6-45.4-10.7l-5.2-3.2l-2.9,5.35c-6.85,12.55-51.45,94.95-51.9,95.75l-1.3,2.399l1.05,2.551
			c0.25,0.6,4.85,11.449,16.7,26.949L124.55,298.75z"/>
		<path fill="#FFA600" d="M387.65,306.2c-0.75-4.4-2.551-8.5-5.2-12l-2.351,2l-120.55-72.1c0,0-6.05-1.55-12.25-1.65
			C265.2,232.6,285,245,313.35,262.7c15.801,9.85,33.7,21.05,55.5,34.5c3.95,2.45,6.65,6.399,7.4,10.85
			c1,6.101-1.65,9.851-4.05,11.9c-4.45,3.75-11.4,4.95-17.3,2.899c-0.5-0.149-1-0.3-1.551-0.35c-0.1-0.15-0.199-0.3-0.399-0.45
			l-56.65-35.3c-2.7-1.7-6.25-0.85-7.95,1.85l0,0c-1.699,2.7-0.85,6.25,1.851,7.95L345,330.8c0.35,0.25,0.85,0.25,1.4,0.15
			c0.3,3.8-0.2,8.5-3.9,11.6c-4.05,3.4-10.85,4.15-18.5,2.15c-0.1-0.25-0.25-0.5-0.5-0.65l-31.8-20.3c-2.7-1.7-6.25-0.95-7.95,1.75
			l0,0c-1.7,2.7-0.95,6.25,1.75,7.95l29.95,19.149c1.6,6.25,1.149,11.101-1.351,14.45c-4,5.351-12.699,6.55-16.75,6.851
			c-1.05-0.75-2.399-1.4-4.199-2.051L265.1,355.7c-2.75-1.601-6.3-0.65-7.899,2.1c-1.601,2.75-0.65,6.3,2.1,7.9l27.4,15.8
			c-9.95,9.3-30,5.75-40.3,2.05c-2.25-0.8-4.4-1.6-6.55-2.45l-6.2,9.4c-0.1,0.15-0.2,0.3-0.3,0.45c3,1.149,6.05,2.3,9.2,3.45
			c8.05,2.899,16.8,4.6,25.101,4.6c12.6,0,24.199-3.95,30.899-13.6c6.45-0.45,18.15-2.601,24.75-11.4c3.5-4.65,5-10.3,4.55-16.85
			c8.65,0.899,16.551-1.101,22.051-5.7c4.699-3.95,7.449-9.55,8-16.2c7.85,0.75,15.899-1.55,21.75-6.5
			C386.2,323.25,389.1,315,387.65,306.2z"/>
	</g>
	<path fill="#FFA600" d="M380.9,302.9L257.35,229.6c-5.399-1.25-14-2-17.1,0.05c-6.9,4.65-33.85,21.2-44.6,26
		c-10.05,4.5-22.05-0.65-27.9-8.2c-5.4-7.05-5.35-15.7,0.2-22.5c15.85-19.55,27.85-31.95,38.9-40.3c16.05-12.15,59-19.65,100.4-10.6
		l0.35,0.1c30.801,8.75,43.65,3.1,43.801,3.05l5.05-2.55l2.55,5.05l51.5,97.899L380.9,302.9z M247.05,216.85
		c6.3,0,12.2,1.35,13.9,1.8l0.8,0.2L379.7,288.8l16.35-14l-45-85.5c-7.3,1.65-22.05,2.85-46.399-4.05
		c-40.25-8.75-78.601-0.65-90.8,8.6c-10.3,7.75-21.65,19.6-36.9,38.4c-1.4,1.7-2.9,4.45,0,8.2c3.3,4.3,10,6.55,14.05,4.7
		c10.05-4.5,36.4-20.7,42.9-25.05C237.45,217.6,242.35,216.85,247.05,216.85z"/>
	<path fill="#FFA600" d="M245.85,360.25c-1.2-5.9-4.65-11-9.65-14.3c-4.15-2.7-8.9-3.95-13.75-3.65c0.4-7.7-3.15-15.45-10.05-20
		c-3.65-2.399-7.8-3.6-11.9-3.7c0.55-2.85,0.5-5.8-0.05-8.699c-1.2-5.9-4.65-11-9.65-14.301c-9.15-6.05-21.1-4.5-28.5,3.051
		c-1.5-2.25-3.4-4.25-5.65-5.851c-4.9-3.5-10.9-4.85-16.8-3.85c-5.95,1-11.15,4.25-14.65,9.149l-14.4,20.2
		c-7.2,10.15-4.85,24.25,5.3,31.45c3.7,2.6,8.05,4.05,12.5,4.15c-0.7,8,2.85,16.149,10.05,20.899c3.5,2.3,7.75,3.4,12.05,3.4
		c5.2,0,10.55-1.55,14.9-4.5c1.75,3.3,4.3,6.149,7.5,8.3c3.4,2.25,7.25,3.4,11.15,3.4c1.9,0,3.8-0.25,5.65-0.801
		c1.1-0.3,2.2-0.75,3.25-1.25c1.25,5.45,4.5,10.4,9.5,13.7c3.8,2.5,8.1,3.7,12.4,3.7c7.35,0,14.55-3.55,18.85-10.1l8.85-13.4
		C245.9,372.15,247.05,366.15,245.85,360.25z M131.75,343.2c-3.4,0.75-6.95,0.05-9.75-1.95c-5.45-3.9-6.75-11.5-2.85-16.95
		l14.4-20.2c1.9-2.649,4.7-4.399,7.9-4.949c3.2-0.551,6.45,0.199,9.1,2.1c2.3,1.65,3.9,3.95,4.65,6.65L131.75,343.2z M167.55,350.7
		c-2.3,3.45-3.05,5.3-4.7,11.399c-4.15,5.351-13.45,7.45-18.7,3.95c-5.6-3.7-7.15-11.25-3.45-16.85l27.4-41.5
		c3.7-5.601,11.25-7.15,16.85-3.45c5.6,3.7,7.15,11.25,3.45,16.85c0,0-5.3,4.45-7.35,7.601L167.55,350.7z M194.4,368.65
		c-1.95,2.949-4.65,5.05-7.55,5.899c-1.95,0.55-5,0.8-8.15-1.3c-2.7-1.8-4.55-4.55-5.2-7.7c-0.65-3.2-0.05-6.45,1.75-9.149
		l14.55-22.051c3.7-5.6,11.25-7.149,16.85-3.449c5.1,3.35,6.8,9.899,4.3,15.3c-2.35,1.6-4.4,3.7-6,6.149l-8.85,13.4
		C195.45,366.7,194.4,368.65,194.4,368.65 M233.9,371.45l-8.85,13.399c-3.7,5.601-11.25,7.15-16.85,3.45
		c-5.6-3.7-7.15-11.25-3.45-16.85l8.85-13.4c1.8-2.7,4.55-4.55,7.7-5.2c0.8-0.149,1.65-0.25,2.45-0.25c2.35,0,4.65,0.7,6.7,2
		c2.7,1.801,4.55,4.551,5.2,7.7C236.35,365.5,235.7,368.75,233.9,371.45z"/>
</g>
<g id="Capa_5">
	<path fill="#FFA600" d="M78.35,308.65l-62.5-33.801L98.8,121.45l62.5,33.8L78.35,308.65z M29.95,270.65l44.2,23.899L147.2,159.4
		L103,135.5L29.95,270.65z"/>
	<path fill="#FFA600" d="M426.4,295.95l-82.95-153.4l62.45-33.8l82.949,153.4L426.4,295.95z M357.5,146.75l73.1,135.15l44.2-23.9
		l-73.05-135.15L357.5,146.75z"/>
</g>
<rect x="221.227" y="88.701" transform="matrix(-0.7071 -0.7071 0.7071 -0.7071 335.0096 356.319)" fill="#FFA600" width="40.149" height="40.149"/>
</svg>
