<?xml version="1.0" encoding="utf-8"?>
<!-- Generator: Adobe Illustrator 22.0.1, SVG Export Plug-In . SVG Version: 6.00 Build 0)  -->
<svg version="1.1" id="Capa_1" xmlns="http://www.w3.org/2000/svg" xmlns:xlink="http://www.w3.org/1999/xlink" x="0px" y="0px"
	 viewBox="0 0 1000 1000" style="enable-background:new 0 0 1000 1000;" xml:space="preserve">
<style type="text/css">
	.st0{fill:#F0C413;}
</style>
<g id="Capa_2_1_">
	<g>
		<path class="st0" d="M249.1,597.5c-12.9-17.6-20.4-31.3-23.9-38.2c13.7-25.3,74.2-136.9,95.4-176c24,12.7,46.1,17.1,73.1,18.3
			c8.4-8.3,16.5-15.4,24.3-21.5c-0.1,0-0.2-0.1-0.3-0.1l-2.3-1H413c-42.5,0-64.6-5.2-90.8-21.4l-10.4-6.4l-5.8,10.7
			C292.3,387,203.1,551.8,202.2,553.4l-2.6,4.8l2.1,5.1c0.5,1.2,9.7,22.9,33.4,53.9L249.1,597.5z"/>
		<path class="st0" d="M775.3,612.4c-1.5-8.8-5.1-17-10.4-24l-4.7,4L519.1,448.2c0,0-12.1-3.1-24.5-3.3
			c35.8,20.3,75.4,45.1,132.1,80.5c31.6,19.7,67.4,42.1,111,69c7.9,4.9,13.3,12.8,14.8,21.7c2,12.2-3.3,19.7-8.1,23.8
			c-8.9,7.5-22.8,9.9-34.6,5.8c-1-0.3-2-0.6-3.1-0.7c-0.2-0.3-0.4-0.6-0.8-0.9l-113.3-70.6c-5.4-3.4-12.5-1.7-15.9,3.7l0,0
			c-3.4,5.4-1.7,12.5,3.7,15.9L690,661.6c0.7,0.5,1.7,0.5,2.8,0.3c0.6,7.6-0.4,17-7.8,23.2c-8.1,6.8-21.7,8.3-37,4.3
			c-0.2-0.5-0.5-1-1-1.3l-63.6-40.6c-5.4-3.4-12.5-1.9-15.9,3.5l0,0c-3.4,5.4-1.9,12.5,3.5,15.9l59.9,38.3
			c3.2,12.5,2.3,22.2-2.7,28.9c-8,10.7-25.4,13.1-33.5,13.7c-2.1-1.5-4.8-2.8-8.4-4.1l-56.1-32.3c-5.5-3.2-12.6-1.3-15.8,4.2
			s-1.3,12.6,4.2,15.8l54.8,31.6c-19.9,18.6-60,11.5-80.6,4.1c-4.5-1.6-8.8-3.2-13.1-4.9L467.3,781c-0.2,0.3-0.4,0.6-0.6,0.9
			c6,2.3,12.1,4.6,18.4,6.9c16.1,5.8,33.6,9.2,50.2,9.2c25.2,0,48.4-7.9,61.8-27.2c12.9-0.9,36.3-5.2,49.5-22.8
			c7-9.3,10-20.6,9.1-33.7c17.3,1.8,33.1-2.2,44.1-11.4c9.4-7.9,14.9-19.1,16-32.4c15.7,1.5,31.8-3.1,43.5-13
			C772.4,646.5,778.2,630,775.3,612.4z"/>
	</g>
	<path class="st0" d="M761.8,605.8L514.7,459.2c-10.8-2.5-28-4-34.2,0.1c-13.8,9.3-67.7,42.4-89.2,52c-20.1,9-44.1-1.3-55.8-16.4
		c-10.8-14.1-10.7-31.4,0.4-45c31.7-39.1,55.7-63.9,77.8-80.6c32.1-24.3,118-39.3,200.8-21.2l0.7,0.2c61.6,17.5,87.3,6.2,87.6,6.1
		l10.1-5.1l5.1,10.1l103,195.8L761.8,605.8z M494.1,433.7c12.6,0,24.4,2.7,27.8,3.6l1.6,0.4l235.9,139.9l32.7-28l-90-171
		c-14.6,3.3-44.1,5.7-92.8-8.1c-80.5-17.5-157.2-1.3-181.6,17.2c-20.6,15.5-43.3,39.2-73.8,76.8c-2.8,3.4-5.8,8.9,0,16.4
		c6.6,8.6,20,13.1,28.1,9.4c20.1-9,72.8-41.4,85.8-50.1C474.9,435.2,484.7,433.7,494.1,433.7z"/>
	<path class="st0" d="M491.7,720.5c-2.4-11.8-9.3-22-19.3-28.6c-8.3-5.4-17.8-7.9-27.5-7.3c0.8-15.4-6.3-30.9-20.1-40
		c-7.3-4.8-15.6-7.2-23.8-7.4c1.1-5.7,1-11.6-0.1-17.4c-2.4-11.8-9.3-22-19.3-28.6c-18.3-12.1-42.2-9-57,6.1
		c-3-4.5-6.8-8.5-11.3-11.7c-9.8-7-21.8-9.7-33.6-7.7c-11.9,2-22.3,8.5-29.3,18.3l-28.8,40.4c-14.4,20.3-9.7,48.5,10.6,62.9
		c7.4,5.2,16.1,8.1,25,8.3c-1.4,16,5.7,32.3,20.1,41.8c7,4.6,15.5,6.8,24.1,6.8c10.4,0,21.1-3.1,29.8-9c3.5,6.6,8.6,12.3,15,16.6
		c6.8,4.5,14.5,6.8,22.3,6.8c3.8,0,7.6-0.5,11.3-1.6c2.2-0.6,4.4-1.5,6.5-2.5c2.5,10.9,9,20.8,19,27.4c7.6,5,16.2,7.4,24.8,7.4
		c14.7,0,29.1-7.1,37.7-20.2l17.7-26.8C491.8,744.3,494.1,732.3,491.7,720.5z M263.5,686.4c-6.8,1.5-13.9,0.1-19.5-3.9
		c-10.9-7.8-13.5-23-5.7-33.9l28.8-40.4c3.8-5.3,9.4-8.8,15.8-9.9c6.4-1.1,12.9,0.4,18.2,4.2c4.6,3.3,7.8,7.9,9.3,13.3L263.5,686.4z
		 M335.1,701.4c-4.6,6.9-6.1,10.6-9.4,22.8c-8.3,10.7-26.9,14.9-37.4,7.9c-11.2-7.4-14.3-22.5-6.9-33.7l54.8-83
		c7.4-11.2,22.5-14.3,33.7-6.9c11.2,7.4,14.3,22.5,6.9,33.7c0,0-10.6,8.9-14.7,15.2L335.1,701.4z M388.8,737.3
		c-3.9,5.9-9.3,10.1-15.1,11.8c-3.9,1.1-10,1.6-16.3-2.6c-5.4-3.6-9.1-9.1-10.4-15.4c-1.3-6.4-0.1-12.9,3.5-18.3l29.1-44.1
		c7.4-11.2,22.5-14.3,33.7-6.9c10.2,6.7,13.6,19.8,8.6,30.6c-4.7,3.2-8.8,7.4-12,12.3l-17.7,26.8
		C390.9,733.4,388.8,737.3,388.8,737.3 M467.8,742.9l-17.7,26.8c-7.4,11.2-22.5,14.3-33.7,6.9c-11.2-7.4-14.3-22.5-6.9-33.7
		l17.7-26.8c3.6-5.4,9.1-9.1,15.4-10.4c1.6-0.3,3.3-0.5,4.9-0.5c4.7,0,9.3,1.4,13.4,4c5.4,3.6,9.1,9.1,10.4,15.4
		C472.7,731,471.4,737.5,467.8,742.9z"/>
</g>
<g id="Capa_5">
	<path class="st0" d="M156.7,617.3l-125-67.6l165.9-306.8l125,67.6L156.7,617.3z M59.9,541.3l88.4,47.8l146.1-270.3L206,271
		L59.9,541.3z"/>
	<path class="st0" d="M852.8,591.9L686.9,285.1l124.9-67.6l165.9,306.8L852.8,591.9z M715,293.5l146.2,270.3l88.4-47.8L803.5,245.7
		L715,293.5z"/>
</g>
<rect x="442.5" y="177.4" transform="matrix(0.7071 0.7071 -0.7071 0.7071 295.1518 -277.5595)" class="st0" width="80.3" height="80.3"/>
</svg>
