<?xml version="1.0" encoding="utf-8"?>
<!-- Generator: Adobe Illustrator 22.0.1, SVG Export Plug-In . SVG Version: 6.00 Build 0)  -->
<svg version="1.1" id="Capa_1" xmlns="http://www.w3.org/2000/svg" xmlns:xlink="http://www.w3.org/1999/xlink" x="0px" y="0px"
	 viewBox="0 0 1000 1000" style="enable-background:new 0 0 1000 1000;" xml:space="preserve">
<style type="text/css">
	.st0{display:none;fill:none;stroke:#773A3A;stroke-miterlimit:10;}
	.st1{fill:#F0C413;}
	.st2{fill:#B5981D;}
</style>
<image style="display:none;overflow:visible;opacity:0.44;enable-background:new    ;" width="304" height="235" xlink:href="D66D3AE0.jpeg"  transform="matrix(1 0 0 1 348 383)">
</image>
<path class="st0" d="M584,503v-48c0,0-21.5,5.5-26.5,5.5c-10,0-23.6-25.2-35-19c-11,6-41,21-45,26c-3.6,4.6,1.6,10.6,4,12
	c2.2,1.3,5.7,1,8,0c7-3,19-9,25-12c2-1,7-2,12,4c6.8,8.2,31.4,30.8,35,33C566.5,507.5,584,503,584,503z"/>
<path class="st0" d="M498.5,446.5c-5,3-29,11-29,25c0,17,13.7,18.1,19,17c5-1,13.6-6.3,19-9c2-1,8-4,16,5c7.5,8.5,22,21,28,28
	c1.5,1.8,1.2,5.8-2,9c-1,1-4.4,3.4-7,1c-6.5-6-15.7-13.6-16-13c0,0,7.9,8.2,13,15c3,4,0.6,7.7-1,9c-1.6,1.2-4,3-8,0
	c-4.4-3.3-15-13-17-14c-4.4-2.2,9,11,13,15c1.6,1.6-0.2,7.6-2,9c-1.6,1.3-8,0-8,0l-15-14l10,14l-3,9l-11-4l-2-12l-10-8l-4-8l-7-2
	l-3-8l-7-4l-13-11l-19,12l-9-3c0,0,0-37,0-55c8,0,20,9,26,7S484.5,430.5,498.5,446.5z"/>
<path class="st1" d="M826.4,372.1l-6,187.5c-0.1,1.8-1.4,3.4-3.2,3.7c-9.9,1.6-40.4,6.6-47.7,7.2c-8.6,0.8-35.9,8.7-54.9-10.8
	c-29.2-29.9-133-139.9-133-139.9s-17.9-18.7-48.1-4c-27.7,13.5-68.8,33.3-85.9,40.9c-32.4,16-58-11.8-57.3-32.3
	c0.5-15.9,10.8-26.4,25.2-33.9c39.2-22.1,121.7-65,156-81.9c20.9-10.3,35.7-10.7,63.1,13.9c33.8,30.3,63.8,57.9,63.8,57.9
	s9.8,8.7,26,5.8c33.2-5.9,82.2-15.2,97.4-18.1C824.3,367.7,826.5,369.6,826.4,372.1z M695.1,573.9
	C579.2,458,633.7,512.6,571.4,450.1c0,0-18.7-18.7-43.4-7.8c-17.3,7.6-39.6,18-56.4,25.9c-18.5,9.7-31.7,12.7-38,12.6
	c-35.7-0.2-64.6-28.9-64.6-64.6c0-23.1,17.6-32.6,35.9-44c19.3-13.3,62.6-34.3,80.6-44.1c5-2.7,5.6-9.8,1-13.2
	c-9-6.6-25-14.9-48.8-14.9c-38.5,0-127.9,41.1-132.6,43.3c-0.1,0.1-0.2,0.1-0.3,0.2c-2.1,1.2-24.8,14.3-56.7,1.4l-59.3-20.6
	c-2.5-0.9-5.1,1-5.1,3.6v215.5c0,1.7,1.1,3.2,2.7,3.7c5.2,1.6,17,5.3,28.6,9.8c1.9,0.8,4.1-0.2,4.9-2.1c3.8-9.3,9.3-17.8,16.7-25
	c27.4-26.1,72.8-26.4,97.8-0.7c7,7.3,12,15.8,14.8,25.3c0.4,1.3,1.4,2.3,2.7,2.8c9.2,3.2,17.6,8.4,24.4,15.5
	c7,7.2,12,15.8,14.9,25.2c0.4,1.3,1.4,2.3,2.7,2.8c9.2,3.2,17.6,8.5,24.4,15.5c7.7,7.9,12.9,17.3,15.7,27.6c0.4,1.5,1.5,2.6,3,3.1
	c9.6,3.2,18.2,8.6,25.2,15.8c15,15.4,20.3,36.3,17.1,56.4h0.1c0.2,0.3,9.3,10.4,14.9,16.1c11.1,11.1,29.1,11.1,40.2,0
	c11-11,11.1-29,0-40.2c-0.4-0.4-39.9-41.7-36.7-44.9c3.2-3.2,53.4,49.1,54.3,50.1c11,11,29.1,11,40.2,0c11-11.1,11-29.1,0-40.1
	c-0.5-0.5-2.7-2.6-3.6-3.5l-0.1-0.1c-2.1-1.8-49.7-44.4-46-48.1c3.8-3.8,65.7,54,65.8,54c11.2,10,28.3,9.9,39-0.8
	c10.4-10.4,10.6-26.9,1.4-38c-0.2-0.6-47.2-49.7-43.5-53.4s50.2,44.1,50.3,44.2c11,11,29.1,11,40.1,0s11-29.1,0-40.2
	C695.4,574.1,695.2,574,695.1,573.9z"/>
<path class="st1" d="M238.2,596.6L238.2,596.6c-12.4-13.5-11.5-34.5,2-46.8l23.4-21.4c13.5-12.4,34.5-11.5,46.8,2l0,0
	c12.4,13.5,11.5,34.5-2,46.8L285,598.6C271.6,611,250.6,610.1,238.2,596.6z"/>
<path class="st1" d="M286.3,650L286.3,650c-12.4-13.5-11.5-34.5,2-46.8l23.4-21.4c13.5-12.4,34.5-11.5,46.8,2l0,0
	c12.4,13.5,11.5,34.5-2,46.8L333.1,652C319.6,664.4,298.7,663.5,286.3,650z"/>
<path class="st1" d="M334.3,703.4L334.3,703.4c-12.4-13.5-11.5-34.5,2-46.8l23.4-21.4c13.5-12.4,34.5-11.5,46.8,2l0,0
	c12.4,13.5,11.5,34.5-2,46.8l-23.4,21.4C367.7,717.8,346.7,716.9,334.3,703.4z"/>
<path class="st1" d="M387.7,751.4L387.7,751.4c-12.4-13.5-11.5-34.5,2-46.8l23.4-21.4c13.5-12.4,34.5-11.5,46.8,2l0,0
	c12.4,13.5,11.5,34.5-2,46.8l-23.4,21.4C421.1,765.8,400.1,764.9,387.7,751.4z"/>
<rect x="44.9" y="312.5" class="st2" width="122.8" height="250.9"/>
<rect x="781.4" y="413.9" transform="matrix(3.136556e-02 -0.9995 0.9995 3.136556e-02 398.2201 1351.1038)" class="st2" width="229.6" height="112.4"/>
<rect x="145.6" y="298.7" class="st1" width="25.1" height="71.8"/>
<rect x="145.6" y="409.2" class="st1" width="25.1" height="167.5"/>
<rect x="88.6" y="297.6" class="st1" width="35.3" height="71.8"/>
<rect x="88.6" y="408.1" class="st1" width="35.3" height="167.5"/>
<rect x="817.6" y="361.6" transform="matrix(3.467686e-02 -0.9994 0.9994 3.467686e-02 447.3005 1211.4276)" class="st1" width="66.2" height="25.1"/>
<rect x="768.5" y="507.7" transform="matrix(3.467686e-02 -0.9994 0.9994 3.467686e-02 296.4743 1347.3871)" class="st1" width="154.5" height="25.1"/>
<rect x="869.5" y="357.3" transform="matrix(3.467686e-02 -0.9994 0.9994 3.467686e-02 496.6019 1264.0623)" class="st1" width="66.2" height="35.3"/>
<rect x="820.3" y="503.3" transform="matrix(3.467686e-02 -0.9994 0.9994 3.467686e-02 345.7859 1399.8256)" class="st1" width="154.5" height="35.3"/>
<path class="st1" d="M511,289L511,289L511,289c-12-20.9-29.7-37.8-51-48.9l0,0l0,0c20.9-12,37.8-29.7,48.9-51v0l0,0
	c12,20.9,29.7,37.8,51,48.9l0,0l0,0C539.1,249.9,522.1,267.6,511,289z"/>
</svg>
