<?xml version="1.0" encoding="utf-8"?>
<!-- Generator: Adobe Illustrator 16.0.0, SVG Export Plug-In . SVG Version: 6.00 Build 0)  -->
<!DOCTYPE svg PUBLIC "-//W3C//DTD SVG 1.1//EN" "http://www.w3.org/Graphics/SVG/1.1/DTD/svg11.dtd">
<svg version="1.1" id="Layer_1" xmlns="http://www.w3.org/2000/svg" xmlns:xlink="http://www.w3.org/1999/xlink" x="0px" y="0px"
	 width="210px" height="360px" viewBox="0 0 210 360" enable-background="new 0 0 210 360" xml:space="preserve">
<g>
	<circle fill="#FFA600" cx="103.354" cy="45.291" r="44.969"/>
	<path fill="#FFA600" d="M2.274,198.538c10.035-22.583,35.53-60.953,46.621-81.689c3.875-7.242,9.49-18.978,26.817-18.978
		c17.329,0,31.243-0.192,54.761,0c8.152-0.122,15.027-0.621,24.45,15.265c12.685,20.443,32.029,52.234,51.574,85.402
		c1.728,2.933,5.821,8.124,1.424,12.956c-2.134,2.344-12.421,12.839-18.702,13.908c-2.443,0.416-6.238-2.942-9.951-7.278
		c-8.859-10.347-29.439-47.779-29.439-47.779l0.563,107.829v74.664c0,0,1.235,7.697-8.636,7.6
		c-5.394-0.055-20.562,0.228-27.053-0.006c-5.775-0.205-9.454-6.109-9.496-9.679c-0.208-17.347-0.271-72.159-0.271-72.159
		l-4.881-0.023c0,0-0.382,52.774,0,71.787c0.208,10.281-9.283,10.074-9.283,10.074l-25.372-0.168c0,0-8.703-0.244-9.077-11.962
		c-0.619-19.432,0.211-69.966,0.211-69.966l-0.171-106.438c0,0-20.347,32.659-25.206,39.842c-2.127,3.144-6.189,10.074-11.14,10.314
		c-9.594,0.463-17.197-6.873-18.641-11.173C0.322,207.75,0.934,201.555,2.274,198.538z"/>
</g>
</svg>
