<?xml version="1.0" encoding="utf-8"?>
<!-- Generator: Adobe Illustrator 16.0.0, SVG Export Plug-In . SVG Version: 6.00 Build 0)  -->
<!DOCTYPE svg PUBLIC "-//W3C//DTD SVG 1.1//EN" "http://www.w3.org/Graphics/SVG/1.1/DTD/svg11.dtd">
<svg version="1.1" id="Capa_1" xmlns="http://www.w3.org/2000/svg" xmlns:xlink="http://www.w3.org/1999/xlink" x="0px" y="0px"
	 width="175px" height="300px" viewBox="0 0 175 300" enable-background="new 0 0 175 300" xml:space="preserve">
<g>
	<path fill="#FFA600" d="M88.627,0c21.154,0,38.35,17.194,38.35,38.352c0,21.154-17.194,38.348-38.35,38.348
		c-21.155,0-38.348-17.194-38.348-38.348C50.279,17.194,67.472,0,88.627,0z"/>
	<path fill="#FFA600" d="M123.727,147.228l26.226,32.088c3.89,5.861,12.123,7.214,17.678,3.247l0,0
		c5.627-3.882,6.896-11.09,3.641-17.037l-43.976-72.102c-3.566-5.941-10.143-9.829-17.357-9.829H65.33
		c-7.215,0-13.71,3.568-17.357,9.829l-44.21,72.422c-3.326,5.627-1.98,13.154,3.568,17.037l0,0
		c5.941,3.961,13.789,2.691,17.665-3.248l25.598-33.12l-0.635,82.644v53.725c0,9.509,7.528,17.114,17.032,17.114l0,0
		c9.515,0,17.036-7.605,17.036-17.114v-53.725h5.947v53.725c0,9.51,7.527,17.116,17.035,17.116l0,0
		c9.51,0,17.031-7.606,17.031-17.116v-53.725L123.727,147.228z"/>
</g>
</svg>
