<?xml version="1.0" encoding="utf-8"?>
<!-- Generator: Adobe Illustrator 16.0.3, SVG Export Plug-In . SVG Version: 6.00 Build 0)  -->
<!DOCTYPE svg PUBLIC "-//W3C//DTD SVG 1.1//EN" "http://www.w3.org/Graphics/SVG/1.1/DTD/svg11.dtd">
<svg version="1.1" xmlns="http://www.w3.org/2000/svg" xmlns:xlink="http://www.w3.org/1999/xlink" x="0px" y="0px"
	 width="1000.006px" height="1000px" viewBox="0 0 1000.006 1000" enable-background="new 0 0 1000.006 1000" xml:space="preserve">
<g id="Adaptative">
	<path fill="#F1C40F" stroke="#F1C40F" stroke-width="15" stroke-miterlimit="10" d="M584.253,910.055H396.13v-90.456h188.124
		L584.253,910.055L584.253,910.055z M414.627,887.441h151.118v-45.228H414.627V887.441z"/>
	<path fill="#F1C40F" stroke="#F1C40F" stroke-width="15" stroke-miterlimit="10" d="M611.079,742.161l-241.056-1.653l-0.019-9.169
		c0,0-0.083-4.485,0.426-56.093c-84.146-47.796-136.187-139.354-136.187-240.377c0-150.481,116.197-272.933,259.037-272.933
		c142.839,0,259.047,122.452,259.047,272.933c0,103.185-53.659,195.66-140.408,242.703c-0.026,74.821-0.64,55.483-0.64,55.483
		L611.079,742.161z M388.497,722.146l204.446,1.41c0.178-13.622,0.459,2.258,0.459-51.542v-5.635l5.021-2.594
		c83.522-43.003,135.414-130.719,135.414-228.917c0-140.294-107.914-254.428-240.556-254.428
		c-132.633,0-240.539,114.133-240.539,254.428c0,96.15,50.346,183.057,131.387,226.807l4.921,2.659l-0.064,5.583
		C388.561,710.016,388.51,704.503,388.497,722.146z"/>
	<rect x="358.745" y="711.011" fill="#B5981D" width="264.785" height="139.039"/>
	<rect x="443.6" y="708.519" fill="#F1C40F" width="187.607" height="27.934"/>
	<rect x="342.386" y="708.519" fill="#F1C40F" width="59.449" height="27.934"/>
	<rect x="443.6" y="776.031" fill="#F1C40F" width="194.388" height="35.47"/>
	<rect x="348.814" y="776.031" fill="#F1C40F" width="53.021" height="35.47"/>
</g>
<g id="Capa_2">
	
		<rect x="465.173" y="415.77" fill="#F1C40F" stroke="#F1C40F" stroke-width="15" stroke-miterlimit="10" width="59.36" height="286.024"/>
	<polygon fill="#F1C40F" points="495.264,409.606 531.828,409.606 513.546,377.31 495.264,345.014 476.98,377.31 458.696,409.606 	
		"/>
	<rect x="456.416" y="408.057" fill="#B5981D" width="76.844" height="7.432"/>
	<polygon fill="#B5981D" points="503.589,359.292 495.363,345.442 487.179,359.338 	"/>
	<rect x="456.753" y="653.818" fill="#B5981D" width="76.5" height="28.918"/>
</g>
</svg>
