<?xml version="1.0" encoding="utf-8"?>
<!-- Generator: Adobe Illustrator 16.0.3, SVG Export Plug-In . SVG Version: 6.00 Build 0)  -->
<!DOCTYPE svg PUBLIC "-//W3C//DTD SVG 1.1//EN" "http://www.w3.org/Graphics/SVG/1.1/DTD/svg11.dtd">
<svg version="1.1" id="Capa_1" xmlns="http://www.w3.org/2000/svg" xmlns:xlink="http://www.w3.org/1999/xlink" x="0px" y="0px"
	 width="1000px" height="1000px" viewBox="0 0 1000 1000" enable-background="new 0 0 1000 1000" xml:space="preserve">
<g>
	<path fill="#EEC416" d="M503.04,479.433c-83.832-0.669-153.521,64.128-153.749,151.698
		c-0.194,85.625,68.647,150.895,150.142,151.369c84.499,0.483,152.307-66.005,153.197-150.802
		C653.459,549.41,585.861,480.103,503.04,479.433z M501.582,695.876c-36.316-0.007-64.245-28.412-64.103-65.099
		c0.154-34.853,28.532-62.901,63.749-63.046c36.122-0.169,64.551,27.703,64.584,63.308
		C565.861,667.981,538.213,695.911,501.582,695.876z"/>
	<path fill="#EEC416" d="M500.042,0C223.876,0,0,223.877,0,500.042c0,276.167,223.877,500.043,500.043,500.043
		c276.166,0,500.048-223.877,500.048-500.043C1000.091,223.877,776.208,0,500.042,0z M539.143,857.208
		c-124.184,20.659-241.622-61.26-264.05-184.139c-23.435-128.501,64.949-251.23,193.415-269.028
		c47.905-6.611,93.293,0.752,136.439,22.385c3.589,1.795,7.108,3.69,10.688,5.469c0.272,0.135,0.771-0.137,2.6-0.584
		c-2.049-43.502,4.765-87.717-3.547-131.075c-14.531-75.704-106.495-114.247-172.502-73.504
		c-39.133,24.08-57.797,59.625-57.652,105.361c0.076,21.669,0,21.669-21.919,21.669c-16.023,0-32.095-0.248-48.125,0.108
		c-6.099,0.145-8.072-1.558-8.429-7.956c-5.426-102.282,57.543-187.313,155.651-209.725c112.7-25.755,228.64,62.469,233.465,177.8
		c2.598,61.344,0.558,122.702,1.031,184.055c0.085,8.218,1.796,15.353,5.899,22.74C778.574,658.004,694.497,831.352,539.143,857.208
		z"/>
</g>
</svg>
