<?xml version="1.0" encoding="utf-8"?>
<!-- Generator: Adobe Illustrator 16.0.0, SVG Export Plug-In . SVG Version: 6.00 Build 0)  -->
<!DOCTYPE svg PUBLIC "-//W3C//DTD SVG 1.1//EN" "http://www.w3.org/Graphics/SVG/1.1/DTD/svg11.dtd">
<svg version="1.1" id="Capa_1" xmlns="http://www.w3.org/2000/svg" xmlns:xlink="http://www.w3.org/1999/xlink" x="0px" y="0px"
	 width="1000px" height="1000px" viewBox="0 0 1000 1000" enable-background="new 0 0 1000 1000" xml:space="preserve">
<g>
	<polygon fill="#FFA600" points="120.165,189.061 120.165,282.527 197.818,282.527 197.818,266.715 786.895,266.715 
		786.895,753.041 755.256,753.041 755.256,830.695 864.55,830.695 864.55,189.061 	"/>
	<polygon fill="#FFA600" points="209.329,97.028 209.329,190.494 286.983,190.494 286.983,174.682 876.06,174.682 876.06,661.012 
		844.42,661.012 844.42,738.666 953.714,738.666 953.714,97.028 	"/>
	<path fill="#FFA600" d="M775.386,921.41H31V279.784h744.386V921.41z M108.654,843.755H697.73V357.438H108.654V843.755z"/>
	<rect x="153.755" y="446.599" fill="#FFA600" width="509.068" height="43.142"/>
	<rect x="435.614" y="555.888" fill="#FFA600" width="227.209" height="43.143"/>
	<rect x="435.614" y="659.428" fill="#FFA600" width="227.209" height="43.143"/>
	<rect x="435.614" y="754.338" fill="#FFA600" width="227.209" height="43.143"/>
	<rect x="165.26" y="525.689" fill="#FFA600" width="243.028" height="278.978"/>
</g>
</svg>
