<?xml version="1.0" encoding="utf-8"?>
<!-- Generator: Adobe Illustrator 16.0.0, SVG Export Plug-In . SVG Version: 6.00 Build 0)  -->
<!DOCTYPE svg PUBLIC "-//W3C//DTD SVG 1.1//EN" "http://www.w3.org/Graphics/SVG/1.1/DTD/svg11.dtd">
<svg version="1.1" id="Layer_1" xmlns="http://www.w3.org/2000/svg" xmlns:xlink="http://www.w3.org/1999/xlink" x="0px" y="0px"
	 width="430px" height="247px" viewBox="0 91.5 430 247" enable-background="new 0 91.5 430 247" xml:space="preserve">
<path fill="#FFA600" d="M202.158,322.769c4.325,1.367,12.834,3.67,21.182,3.67c9.543,0,17.145-2.535,22.604-7.521l3.035-3.519
	c9.516-0.783,16.738-4.075,20.915-9.549c2.132-2.791,4.233-7.143,4.007-13.308c7.085,0.553,13.398-1.176,17.926-4.894
	c4.221-3.455,6.65-7.901,7.107-12.867c6.396,0.371,12.922-1.674,17.579-5.518c5.562-4.641,8.065-11.549,6.877-18.947l-0.771,0.115
	c-2.053,0.908-4.269,1.438-6.556,1.438c-0.664,0-1.326-0.041-1.98-0.126l-1.814,0.277c0.593,3.69-0.437,6.672-3.033,8.846
	c-3.325,2.751-9.172,3.646-13.263,2.242l-0.539-0.17c-0.582-0.271-1.475-0.787-2.131-1.15c-0.305-0.165-0.571-0.309-0.793-0.432
	l-0.003,0.01L247.242,234l-2.957,4.688l-2.959,4.68l45.264,27.365l2.962-4.688l-2.97,4.702c0.344,0.25,0.8,0.631,1.08,0.933
	c0.449,3.101-0.512,5.432-3.07,7.529c-3.061,2.516-8.621,3.063-14.424,1.584c-0.202-0.066-0.621-0.271-0.854-0.415l-0.431-0.444
	l-25.429-15.906l-3.027,4.641l-3.031,4.641l24.213,15.146c0.146,0.17,0.299,0.354,0.408,0.494c1.146,4.349,0.766,7.817-1.143,10.309
	c-2.979,3.898-9.555,4.929-13.144,5.193l-0.348,0.028l-7.537-4.188l-18.562-10.333l-2.783,4.787l-2.781,4.787l16.076,8.943
	l5.527,3.075c-3.293,2.54-7.951,3.868-13.99,3.868c-4.969,0-11.425-1.143-17.72-3.132c-0.12-0.037-0.237-0.08-0.36-0.122
	c0.646-1.775,1.025-3.604,1.133-5.438c0.408-7.007-3.012-14.023-9.529-17.973c-3.681-2.227-7.893-3.193-12.13-2.873
	c0-6.625-3.375-13.097-9.543-16.829c-3.404-2.063-7.264-3.062-11.17-2.946c0.452-7.051-2.966-14.111-9.518-18.073
	c-4.583-2.776-10.002-3.634-15.252-2.431c-2.836,0.654-5.429,1.893-7.667,3.578c-1.657-3.113-4.124-5.756-7.251-7.644
	c-4.525-2.744-9.856-3.611-15.048-2.47c-0.068,0.015-0.134,0.021-0.201,0.037c-1.862,0.431-3.613,1.108-5.234,1.994
	c-3.973-5.437-6.589-9.729-7.998-12.209l38.184-70.708c3.497,1.719,8.684,3.983,15.515,6.236c3.099-3.311,6.018-6.232,8.829-8.86
	c-15.383-4.432-23.415-9.444-23.527-9.516l-4.787-3.099l-23.115,41.83l-23.755,43.985l1.204,2.494
	c0.411,0.847,3.924,7.886,11.357,17.917l-3.215,4.979l-8.58,13.295c-5.852,9.271-2.914,21.464,6.555,27.188
	c3.196,1.935,6.861,2.954,10.605,2.954c0.249,0,0.491-0.039,0.742-0.046c-0.157,2.011-0.011,4.042,0.476,6.058
	c1.241,5.146,4.442,9.498,9.032,12.271c3.195,1.931,6.865,2.954,10.605,2.954c4.735,0,9.162-1.608,12.691-4.411
	c1.655,2.931,4.048,5.419,7.035,7.229c3.195,1.936,6.866,2.952,10.605,2.952c2.168,0,4.261-0.362,6.25-0.993
	c1.37,4.778,4.453,8.83,8.794,11.453c3.192,1.932,6.858,2.951,10.602,2.951c7.057,0,13.48-3.496,17.142-9.296l1.335-2.049
	l3.114-4.775C200.417,322.175,201.265,322.485,202.158,322.769 M177.949,326.998c-1.65,0-3.271-0.454-4.686-1.306
	c-2.029-1.231-3.443-3.157-3.996-5.437c-0.544-2.271-0.157-4.612,1.054-6.53l8.326-12.76c1.255-1.986,3.226-3.379,5.548-3.915
	c0.688-0.153,1.38-0.235,2.068-0.235c1.638,0,3.253,0.449,4.677,1.313c4.191,2.531,5.493,7.93,2.948,11.962l-8.329,12.763
	C183.92,325.448,181.073,326.998,177.949,326.998 M143.621,306.853c-0.548-2.271-0.161-4.617,1.067-6.561l12.289-19.032
	c1.257-1.985,3.227-3.379,5.549-3.911c0.687-0.156,1.376-0.238,2.064-0.238c1.643,0,3.253,0.447,4.686,1.313
	c4.186,2.531,5.488,7.933,2.925,11.981l-2.479,3.846c-0.207,0.283-0.421,0.563-0.605,0.859l-8.324,12.758
	c-0.33,0.523-0.63,1.059-0.907,1.604c-1.638,2.574-4.472,4.115-7.583,4.115c-1.65,0-3.271-0.454-4.686-1.313
	C145.586,311.047,144.168,309.121,143.621,306.853 M121.972,307.817c-1.65,0-3.272-0.453-4.686-1.313
	c-2.03-1.229-3.448-3.153-3.997-5.428c-0.546-2.271-0.16-4.613,1.082-6.578l21.912-34.267c1.257-1.979,3.225-3.373,5.553-3.912
	c0.686-0.154,1.376-0.229,2.066-0.229c1.641,0,3.249,0.443,4.68,1.308c4.189,2.537,5.488,7.935,2.914,12.012l-2.494,3.896
	c-0.563,0.672-1.095,1.365-1.569,2.115l-12.29,19.031c-0.555,0.881-1.012,1.799-1.418,2.738l-4.145,6.478
	C127.939,306.267,125.096,307.817,121.972,307.817 M96.432,285.269c-4.191-2.531-5.493-7.933-2.931-11.987l12.616-19.544
	c1.252-1.983,3.223-3.379,5.55-3.905c0.681-0.16,1.376-0.24,2.063-0.24c1.638,0,3.251,0.448,4.682,1.313
	c2.029,1.229,3.448,3.154,3.996,5.425c0.529,2.194,0.166,4.446-0.961,6.354l-3.414,5.332l-9.304,14.418
	c-1.642,2.601-4.487,4.146-7.611,4.146C99.464,286.576,97.846,286.128,96.432,285.269"/>
<path fill="#FFA600" d="M302.504,150.46c-1.791-3.361-5.284-5.447-9.123-5.447c-0.729,0-1.473,0.08-2.276,0.249
	c-2.36,0.529-5.183,0.8-8.388,0.8c-7.172,0-15.59-1.341-25.104-4.008c-0.195-0.056-0.396-0.098-0.525-0.127
	c-10.209-2.197-20.793-3.31-31.463-3.31c-21.859,0-42.375,4.787-52.247,12.181c-9.148,6.807-19.142,17.052-32.366,33.17
	c-4.894,5.863-4.961,13.3-0.194,19.396c3.942,5.07,10.652,8.355,17.093,8.355c2.512,0,4.871-0.486,6.972-1.439
	c9.19-4.063,31.625-17.75,37.176-21.428c0.131-0.084,1.359-0.867,5.063-0.867c3.131,0,6.405,0.558,8.231,0.973l96.525,56.6h0.003
	c1.59,0.933,3.409,1.422,5.253,1.422c2.456,0,4.837-0.871,6.706-2.451l13.558-11.477c3.686-3.113,4.677-8.253,2.422-12.486
	L302.504,150.46z M317.041,235.649l-96.666-56.676l-0.726-0.406l-0.754-0.199c-2.659-0.698-7.334-1.507-11.774-1.507
	c-4.893,0-8.773,0.974-11.424,2.824c-5.433,3.593-27.294,16.855-35.445,20.462c-2.843,1.287-8.153-0.521-10.521-3.572
	c-1.579-2.02-1.59-3.67-0.013-5.567c12.652-15.419,22.032-25.083,30.44-31.332c7.807-5.85,26.502-9.939,45.462-9.939
	c9.863,0,19.649,1.034,29.016,3.044c10.425,2.921,19.871,4.403,28.078,4.403c3.81,0,7.279-0.322,10.146-0.936l36.649,68.837
	L317.041,235.649z"/>
<path fill="#FFA600" d="M134.988,123.259L76.729,91.83L2.921,228.222L39.5,247.958c3.714,1.998,7.718,2.951,11.671,2.951
	c8.77,0,17.276-4.678,21.724-12.915L134.988,123.259z M44.824,238.112l-26.721-14.418l63.154-116.708l38.554,20.796L63.05,232.673
	C59.521,239.19,51.349,241.63,44.824,238.112z"/>
<path fill="#FFA600" d="M296.362,122.928l62.359,114.736c4.476,8.237,13.013,12.916,21.824,12.916c3.966,0,7.986-0.949,11.719-2.956
	L429,227.892L354.87,91.5L296.362,122.928z M368.613,232.344l-57.008-104.89l38.721-20.796l63.431,116.708l-26.839,14.414
	C380.369,241.297,372.155,238.858,368.613,232.344z"/>
</svg>
