<?xml version="1.0" encoding="utf-8"?>
<!-- Generator: Adobe Illustrator 16.0.0, SVG Export Plug-In . SVG Version: 6.00 Build 0)  -->
<!DOCTYPE svg PUBLIC "-//W3C//DTD SVG 1.1//EN" "http://www.w3.org/Graphics/SVG/1.1/DTD/svg11.dtd">
<svg version="1.1" id="Layer_1" xmlns="http://www.w3.org/2000/svg" xmlns:xlink="http://www.w3.org/1999/xlink" x="0px" y="0px"
	 width="500px" height="405px" viewBox="0 52.5 500 405" enable-background="new 0 52.5 500 405" xml:space="preserve">
<g>
	<g>
		<path fill="#FFA600" d="M152.35,111.513c0,32.596-26.53,59.015-59.255,59.015c-32.725,0-59.255-26.419-59.255-59.015
			C33.84,78.92,60.37,52.5,93.095,52.5C125.82,52.5,152.35,78.921,152.35,111.513z"/>
		<path fill="#FFA600" d="M186.042,249.213H2.47c0,0,20.378-63.981,38.341-69.428c26.722-8.101,80.458-6.119,99.628-2.603
			C160.195,180.806,186.042,249.213,186.042,249.213z"/>
	</g>
	<g>
		<path fill="#FFA600" d="M308.33,229.541c0,32.599-26.529,59.015-59.256,59.015c-32.725,0-59.255-26.416-59.255-59.015
			c0-32.591,26.53-59.011,59.255-59.011C281.801,170.529,308.33,196.95,308.33,229.541z"/>
		<path fill="#FFA600" d="M342.021,367.242H158.449c0,0,20.377-63.981,38.341-69.426c26.722-8.103,80.457-6.123,99.626-2.604
			C316.172,298.834,342.021,367.242,342.021,367.242z"/>
	</g>
	<g>
		<path fill="#FFA600" d="M152.35,319.797c0,32.599-26.53,59.016-59.255,59.016c-32.725,0-59.255-26.417-59.255-59.016
			c0-32.592,26.53-59.01,59.255-59.01C125.82,260.787,152.35,287.206,152.35,319.797z"/>
		<path fill="#FFA600" d="M186.042,457.5H2.47c0,0,20.378-63.981,38.341-69.426c26.722-8.103,80.458-6.123,99.628-2.604
			C160.195,389.092,186.042,457.5,186.042,457.5z"/>
	</g>
	<g>
		<path fill="#FFA600" d="M464.309,111.513c0,32.596-26.529,59.015-59.255,59.015c-32.724,0-59.254-26.419-59.254-59.015
			c0-32.593,26.53-59.013,59.254-59.013C437.779,52.5,464.309,78.921,464.309,111.513z"/>
		<path fill="#FFA600" d="M498,249.213H314.43c0,0,20.376-63.981,38.341-69.428c26.721-8.101,80.453-6.119,99.625-2.603
			C472.151,180.806,498,249.213,498,249.213z"/>
	</g>
	<g>
		<path fill="#FFA600" d="M464.309,319.797c0,32.599-26.529,59.016-59.255,59.016c-32.724,0-59.254-26.417-59.254-59.016
			c0-32.592,26.53-59.01,59.254-59.01C437.779,260.787,464.309,287.206,464.309,319.797z"/>
		<path fill="#FFA600" d="M498,457.5H314.43c0,0,20.376-63.981,38.341-69.426c26.721-8.103,80.453-6.123,99.625-2.604
			C472.151,389.092,498,457.5,498,457.5z"/>
	</g>
</g>
</svg>
