<?xml version="1.0" encoding="utf-8"?>
<!-- Generator: Adobe Illustrator 16.0.0, SVG Export Plug-In . SVG Version: 6.00 Build 0)  -->
<!DOCTYPE svg PUBLIC "-//W3C//DTD SVG 1.1//EN" "http://www.w3.org/Graphics/SVG/1.1/DTD/svg11.dtd">
<svg version="1.1" id="Capa_1" xmlns="http://www.w3.org/2000/svg" xmlns:xlink="http://www.w3.org/1999/xlink" x="0px" y="0px"
	 width="175px" height="140px" viewBox="0 0 175 140" enable-background="new 0 0 175 140" xml:space="preserve">
<g>
	<g>
		<path fill="#FFA600" d="M32.618,0.693c11.175,0,20.256,9.038,20.256,20.264c0,11.175-9.081,20.259-20.256,20.259
			c-11.226,0-20.311-9.084-20.311-20.259C12.308,9.731,21.392,0.693,32.618,0.693z"/>
		<path fill="#FFA600" d="M64.673,68.752H0.702l9.276-18.311c1.569-3.138,4.899-5.279,8.465-5.279h28.536
			c3.518,0,6.848,1.949,8.417,5.279L64.673,68.752z"/>
	</g>
	<g>
		<path fill="#FFA600" d="M142.385,0.693c11.176,0,20.307,9.038,20.307,20.264c0,11.175-9.131,20.259-20.307,20.259
			c-11.179,0-20.26-9.084-20.26-20.259C122.125,9.731,131.206,0.693,142.385,0.693z"/>
		<path fill="#FFA600" d="M174.298,68.752H110.33l9.226-18.311c1.568-3.138,4.946-5.279,8.466-5.279h28.582
			c3.52,0,6.85,1.949,8.371,5.279L174.298,68.752z"/>
	</g>
	<g>
		<path fill="#FFA600" d="M32.618,73.078c11.175,0,20.256,9.089,20.256,20.265c0,11.227-9.081,20.307-20.256,20.307
			c-11.226,0-20.311-9.08-20.311-20.307C12.308,82.167,21.392,73.078,32.618,73.078z"/>
		<path fill="#FFA600" d="M64.673,141H0.702l9.276-18.313c1.569-3.139,4.899-5.326,8.465-5.326h28.536
			c3.518,0,6.848,1.949,8.417,5.326L64.673,141z"/>
	</g>
	<g>
		<path fill="#FFA600" d="M142.385,73.078c11.176,0,20.307,9.089,20.307,20.265c0,11.227-9.131,20.307-20.307,20.307
			c-11.179,0-20.26-9.08-20.26-20.307C122.125,82.167,131.206,73.078,142.385,73.078z"/>
		<path fill="#FFA600" d="M174.298,141H110.33l9.226-18.313c1.568-3.139,4.946-5.326,8.466-5.326h28.582
			c3.52,0,6.85,1.949,8.371,5.326L174.298,141z"/>
	</g>
	<g>
		<path fill="#FFA600" d="M87.69,34.697c11.175,0,20.259,9.088,20.259,20.311c0,11.178-9.084,20.259-20.259,20.259
			s-20.259-9.081-20.259-20.259C67.431,43.785,76.514,34.697,87.69,34.697z"/>
		<path fill="#FFA600" d="M119.744,102.615h-63.92l9.226-18.312c1.572-3.137,4.95-5.325,8.468-5.325h28.536
			c3.565,0,6.896,2,8.466,5.325L119.744,102.615z"/>
	</g>
</g>
</svg>
