<?xml version="1.0" encoding="utf-8"?>
<!-- Generator: Adobe Illustrator 16.0.0, SVG Export Plug-In . SVG Version: 6.00 Build 0)  -->
<!DOCTYPE svg PUBLIC "-//W3C//DTD SVG 1.1//EN" "http://www.w3.org/Graphics/SVG/1.1/DTD/svg11.dtd">
<svg version="1.1" id="Layer_1" xmlns="http://www.w3.org/2000/svg" xmlns:xlink="http://www.w3.org/1999/xlink" x="0px" y="0px"
	 width="430px" height="430px" viewBox="0 -90 430 430" enable-background="new 0 -90 430 430" xml:space="preserve">
<path fill="#FFA600" d="M201.181,232.893c4.325,1.367,12.834,3.67,21.182,3.67c9.543,0,17.145-2.535,22.604-7.521l3.035-3.519
	c9.515-0.783,16.738-4.075,20.915-9.549c2.132-2.791,4.234-7.142,4.007-13.307c7.085,0.553,13.398-1.176,17.925-4.893
	c4.221-3.455,6.651-7.902,7.108-12.868c6.396,0.372,12.922-1.673,17.579-5.517c5.562-4.641,8.066-11.549,6.877-18.947l-0.77,0.115
	c-2.053,0.908-4.269,1.438-6.556,1.438c-0.664,0-1.326-0.041-1.981-0.126l-1.814,0.278c0.593,3.69-0.437,6.672-3.033,8.845
	c-3.326,2.751-9.172,3.646-13.263,2.243l-0.539-0.17c-0.582-0.271-1.474-0.787-2.131-1.151c-0.304-0.165-0.571-0.308-0.793-0.431
	l-0.003,0.009l-45.264-27.368l-2.957,4.689l-2.959,4.679l45.263,27.366l2.962-4.688l-2.969,4.702c0.343,0.25,0.799,0.631,1.08,0.933
	c0.449,3.1-0.512,5.432-3.071,7.529c-3.06,2.516-8.621,3.063-14.423,1.584c-0.203-0.066-0.621-0.271-0.854-0.415l-0.431-0.444
	l-25.428-15.906l-3.028,4.64l-3.031,4.64l24.213,15.146c0.146,0.17,0.298,0.354,0.408,0.494c1.146,4.349,0.765,7.818-1.142,10.309
	c-2.979,3.898-9.555,4.928-13.144,5.193l-0.348,0.029l-7.537-4.189l-18.562-10.333l-2.783,4.787l-2.781,4.787l16.077,8.944
	l5.526,3.075c-3.293,2.54-7.951,3.868-13.99,3.868c-4.969,0-11.425-1.143-17.72-3.132c-0.12-0.037-0.237-0.08-0.36-0.122
	c0.646-1.775,1.025-3.604,1.133-5.438c0.408-7.006-3.012-14.023-9.529-17.972c-3.681-2.226-7.893-3.194-12.13-2.873
	c0-6.625-3.375-13.097-9.543-16.829c-3.404-2.063-7.264-3.062-11.17-2.947c0.452-7.051-2.966-14.111-9.518-18.073
	c-4.583-2.776-10.002-3.634-15.252-2.431c-2.836,0.655-5.429,1.893-7.667,3.578c-1.657-3.113-4.124-5.755-7.251-7.643
	c-4.525-2.744-9.856-3.611-15.048-2.469c-0.068,0.014-0.134,0.021-0.201,0.037c-1.862,0.43-3.613,1.108-5.234,1.994
	c-3.973-5.437-6.589-9.729-7.998-12.209l38.184-70.708c3.497,1.719,8.684,3.983,15.515,6.236c3.099-3.311,6.018-6.232,8.829-8.86
	c-15.383-4.432-23.415-9.444-23.527-9.516l-4.787-3.099l-23.115,41.83l-23.755,43.985l1.204,2.494
	c0.411,0.847,3.924,7.886,11.357,17.917l-3.215,4.979l-8.58,13.295c-5.852,9.27-2.914,21.463,6.555,27.188
	c3.196,1.935,6.861,2.954,10.605,2.954c0.249,0,0.491-0.039,0.742-0.046c-0.157,2.011-0.011,4.042,0.476,6.058
	c1.241,5.146,4.442,9.498,9.032,12.271c3.195,1.931,6.865,2.954,10.605,2.954c4.735,0,9.162-1.608,12.691-4.411
	c1.655,2.931,4.048,5.419,7.035,7.229c3.195,1.935,6.866,2.952,10.605,2.952c2.168,0,4.261-0.362,6.25-0.993
	c1.37,4.778,4.453,8.83,8.794,11.453c3.192,1.932,6.858,2.951,10.602,2.951c7.057,0,13.48-3.496,17.142-9.296l1.335-2.049
	l3.114-4.775C199.441,232.299,200.288,232.609,201.181,232.893 M176.972,237.122c-1.65,0-3.271-0.454-4.686-1.306
	c-2.029-1.231-3.443-3.157-3.996-5.436c-0.544-2.271-0.157-4.613,1.054-6.531l8.326-12.759c1.255-1.987,3.226-3.379,5.548-3.915
	c0.688-0.154,1.38-0.236,2.068-0.236c1.638,0,3.253,0.449,4.677,1.313c4.191,2.531,5.493,7.93,2.948,11.962l-8.329,12.763
	C182.944,235.572,180.096,237.122,176.972,237.122 M142.644,216.977c-0.548-2.271-0.161-4.617,1.067-6.561L156,191.384
	c1.257-1.985,3.227-3.379,5.549-3.911c0.687-0.156,1.376-0.238,2.064-0.238c1.643,0,3.253,0.447,4.686,1.313
	c4.186,2.531,5.488,7.933,2.925,11.981l-2.479,3.846c-0.207,0.283-0.421,0.563-0.605,0.859l-8.324,12.758
	c-0.33,0.523-0.63,1.059-0.907,1.604c-1.638,2.574-4.472,4.115-7.583,4.115c-1.65,0-3.271-0.454-4.686-1.313
	C144.61,221.171,143.192,219.245,142.644,216.977 M120.995,217.941c-1.65,0-3.272-0.453-4.686-1.313
	c-2.03-1.229-3.448-3.153-3.997-5.428c-0.546-2.271-0.16-4.613,1.082-6.578l21.912-34.267c1.257-1.979,3.225-3.373,5.553-3.912
	c0.686-0.154,1.376-0.229,2.066-0.229c1.641,0,3.249,0.443,4.68,1.308c4.189,2.537,5.488,7.934,2.914,12.011l-2.494,3.897
	c-0.563,0.672-1.095,1.365-1.569,2.115l-12.29,19.031c-0.555,0.881-1.012,1.799-1.418,2.738l-4.145,6.478
	C126.963,216.391,124.119,217.941,120.995,217.941 M95.455,195.393c-4.191-2.531-5.493-7.933-2.931-11.988l12.616-19.543
	c1.252-1.984,3.223-3.379,5.55-3.906c0.681-0.16,1.376-0.24,2.063-0.24c1.638,0,3.251,0.448,4.682,1.314
	c2.029,1.229,3.448,3.154,3.996,5.424c0.529,2.195,0.166,4.447-0.961,6.354l-3.414,5.332l-9.304,14.418
	c-1.642,2.601-4.487,4.146-7.611,4.146C98.488,196.7,96.869,196.252,95.455,195.393"/>
<path fill="#FFA600" d="M301.527,60.584c-1.791-3.361-5.284-5.447-9.123-5.447c-0.729,0-1.473,0.08-2.276,0.249
	c-2.36,0.529-5.183,0.8-8.388,0.8c-7.172,0-15.59-1.341-25.104-4.008c-0.195-0.056-0.396-0.098-0.525-0.127
	c-10.209-2.197-20.793-3.31-31.463-3.31c-21.859,0-42.375,4.787-52.246,12.181c-9.148,6.807-19.142,17.052-32.366,33.17
	c-4.894,5.863-4.961,13.3-0.194,19.396c3.942,5.07,10.652,8.355,17.093,8.355c2.512,0,4.871-0.486,6.972-1.439
	c9.19-4.063,31.625-17.75,37.176-21.428c0.131-0.084,1.359-0.867,5.063-0.867c3.131,0,6.405,0.558,8.231,0.973l96.525,56.6h0.003
	c1.59,0.932,3.409,1.422,5.253,1.422c2.456,0,4.837-0.871,6.706-2.451l13.558-11.477c3.685-3.113,4.677-8.253,2.422-12.486
	L301.527,60.584z M316.064,145.773l-96.666-56.676l-0.725-0.406l-0.754-0.199c-2.659-0.698-7.334-1.507-11.774-1.507
	c-4.893,0-8.773,0.974-11.424,2.824c-5.433,3.593-27.294,16.855-35.445,20.462c-2.843,1.287-8.153-0.521-10.521-3.572
	c-1.579-2.02-1.59-3.67-0.013-5.567c12.652-15.419,22.032-25.083,30.44-31.332c7.807-5.85,26.502-9.939,45.463-9.939
	c9.863,0,19.649,1.034,29.015,3.044c10.425,2.921,19.871,4.403,28.078,4.403c3.81,0,7.28-0.322,10.147-0.936l36.649,68.837
	L316.064,145.773z"/>
<path fill="#FFA600" d="M134.011,33.383L75.753,1.954L1.945,138.346l36.579,19.736c3.714,1.998,7.718,2.951,11.671,2.951
	c8.77,0,17.276-4.678,21.724-12.915L134.011,33.383z M43.847,148.236l-26.721-14.418L80.28,17.111l38.554,20.796l-56.761,104.89
	C58.545,149.314,50.372,151.754,43.847,148.236z"/>
<path fill="#FFA600" d="M295.386,33.052l62.359,114.736c4.476,8.237,13.013,12.916,21.824,12.916c3.966,0,7.987-0.949,11.719-2.956
	l36.735-19.732L353.894,1.624L295.386,33.052z M367.637,142.468l-57.008-104.89l38.721-20.796L412.78,133.49l-26.839,14.414
	C379.393,151.421,371.179,148.982,367.637,142.468z"/>
</svg>
