<?xml version="1.0" encoding="utf-8"?>
<!-- Generator: Adobe Illustrator 16.0.0, SVG Export Plug-In . SVG Version: 6.00 Build 0)  -->
<!DOCTYPE svg PUBLIC "-//W3C//DTD SVG 1.1//EN" "http://www.w3.org/Graphics/SVG/1.1/DTD/svg11.dtd">
<svg version="1.1" id="Layer_1" xmlns="http://www.w3.org/2000/svg" xmlns:xlink="http://www.w3.org/1999/xlink" x="0px" y="0px"
	 width="550px" height="560px" viewBox="0 0 550 560" enable-background="new 0 0 550 560" xml:space="preserve">
<g>
	<path fill-rule="evenodd" clip-rule="evenodd" fill="#FEA500" d="M305.34,214.678c-34.004,0-68.009-0.142-102.01,0.146
		c-5.305,0.045-6.429-1.544-6.109-6.385c0.417-6.307,0.353-12.675,0.012-18.991c-0.218-4.052,0.832-5.333,5.114-5.306
		c30.168,0.197,60.339,0.104,90.508,0.104c38.671,0,77.343,0.098,116.012-0.124c4.793-0.027,5.836,1.467,5.595,5.844
		c-0.348,6.313-0.356,12.677,0.003,18.991c0.251,4.412-0.849,5.873-5.615,5.841C374.348,214.573,339.842,214.678,305.34,214.678z"/>
	<path fill-rule="evenodd" clip-rule="evenodd" fill="#FEA500" d="M305.34,267.69c-34.004,0-68.009-0.142-102.01,0.146
		c-5.305,0.045-6.429-1.543-6.109-6.385c0.417-6.306,0.353-12.675,0.012-18.991c-0.218-4.052,0.831-5.334,5.114-5.306
		c30.168,0.197,60.339,0.104,90.508,0.104c38.671,0,77.343,0.098,116.012-0.124c4.793-0.027,5.836,1.466,5.595,5.843
		c-0.348,6.315-0.356,12.679,0.003,18.993c0.251,4.412-0.849,5.873-5.615,5.841C374.348,267.585,339.844,267.69,305.34,267.69z"/>
	<path fill-rule="evenodd" clip-rule="evenodd" fill="#FEA500" d="M305.594,320.702c-34.17,0-68.341-0.119-102.51,0.131
		c-5.011,0.036-6.184-1.431-5.864-6.115c0.419-6.14,0.421-12.35,0-18.487c-0.323-4.701,0.885-6.101,5.873-6.086
		c67.006,0.19,134.013,0.127,201.021,0.128c2.166,0,4.357,0.201,6.495-0.047c3.25-0.378,3.903,1.077,3.823,4.008
		c-0.185,6.829-0.369,13.686,0.049,20.494c0.288,4.699-0.882,6.141-5.877,6.104C374.269,320.585,339.93,320.702,305.594,320.702z"/>
	<path fill-rule="evenodd" clip-rule="evenodd" fill="#FEA500" d="M503.288,111.437c0.001-2.683-0.739-4.681-2.545-6.661
		c-19.64-21.541-39.249-43.111-58.733-64.794c-2.435-2.71-4.858-3.853-8.556-3.849c-104.684,0.102-209.368,0.116-314.052-0.029
		c-4.76-0.007-6.072,1.052-6.062,5.959c0.169,78.346,0.119,156.693,0.119,235.04c0,10.169,0.2,20.343-0.101,30.502
		c-0.116,3.924,1.195,4.725,4.81,4.601c7.825-0.269,15.678-0.339,23.496,0.017c4.428,0.2,5.775-0.9,5.765-5.603
		c-0.165-77.012-0.094-154.024-0.188-231.037c-0.005-3.764,0.346-5.483,4.935-5.473c78.18,0.162,156.36,0.149,234.539,0.021
		c4.086-0.007,4.913,1.27,4.889,5.062c-0.157,24.503,0.007,49.008-0.169,73.511c-0.027,3.921,1.008,5.083,4.985,5.049
		c22.502-0.183,45.007,0.02,67.51-0.184c4.212-0.038,5.591,0.784,5.571,5.376c-0.444,106.507,0.505,213.016-0.598,319.524
		c-0.041,4.002-1.173,5.438-5.036,4.874c-1.144-0.167-2.33-0.025-3.497-0.025c-80.181,0-160.36-0.004-240.541,0.019
		c-2.246,0.001-4.564-0.548-6.405,1.728c-8.472,10.467-17.067,20.834-26.102,31.824c1.351,0.163,1.83,0.271,2.308,0.271
		c103.184,0.009,206.369-0.015,309.552,0.103c3.975,0.004,4.102-1.708,4.101-4.757C503.231,378.814,503.231,245.125,503.288,111.437
		z M455.573,119.921c-8.823,0-17.646-0.028-26.47,0.02c-2.155,0.012-3.809,0.062-3.781-3.004
		c0.126-14.439,0.056-28.881,0.056-44.795c14.787,16.313,28.616,31.568,43.313,47.78
		C463.619,119.921,459.597,119.921,455.573,119.921z"/>
	<path fill-rule="evenodd" clip-rule="evenodd" fill="#FEA500" d="M223.219,356.224c-0.14-3.252-1.717-3.739-4.461-3.709
		c-10.996,0.122-21.987-0.127-32.806-2.379c-17.812-3.707-34.787-9.115-47.24-23.608c-1.953-2.273-13.003-2.327-14.843-0.017
		c-8.146,10.224-19.444,15.399-31.304,19.543c-15.602,5.452-31.831,6.726-48.229,6.488c-2.647-0.039-4.805-0.155-4.976,3.673
		c-0.618,13.798-1.549,27.58-2.361,41.368c0.122,7.521,0.527,14.999,1.289,22.46c0.253,2.48,0.55,4.959,0.888,7.43
		c7.266,53.197,36.981,87.632,87.487,104.712c3.126,1.057,6.12,1.009,9.266,0.015c52.252-16.521,84.771-58.479,88.587-113.145
		C225.988,398.001,224.119,377.156,223.219,356.224z M189.827,455.231c-11.392,24.795-31.552,39.762-56.503,49.137
		c-2,0.751-3.577,0.192-5.249-0.447c-39.544-15.132-61.12-43.834-64.899-85.976c-0.565-6.308-1.111-12.611-1.062-18.963
		c0.271-5.488,0.588-10.974,0.793-16.463c0.091-2.431,1.057-3.265,3.609-3.512c22.533-2.183,43.786-8.249,62.491-21.538
		c1.903-1.352,3.069-1.025,4.771,0.175c18.462,13.019,39.413,18.943,61.56,21.409c1.833,0.204,3.978-0.516,4.223,2.73
		C201.46,406.963,200.586,431.814,189.827,455.231z"/>
	<path fill-rule="evenodd" clip-rule="evenodd" fill="#FEA500" d="M124.835,466.66c-0.613-0.553-1.373-1.184-2.071-1.876
		c-9.119-9.03-18.173-18.126-27.382-27.063c-2.022-1.963-2.137-3.146-0.032-5.117c4.621-4.326,9.095-8.823,13.427-13.439
		c1.732-1.846,2.739-1.559,4.304,0.083c2.986,3.136,6.389,5.896,9.2,9.17c2.43,2.829,3.864,2.219,6.198-0.16
		c9.922-10.11,20.141-19.928,30.042-30.059c2.5-2.557,3.922-2.45,6.24,0.097c4.035,4.433,8.362,8.608,12.701,12.752
		c1.691,1.615,1.831,2.624,0.063,4.37c-16.72,16.516-33.348,33.123-50.01,49.696C126.821,465.805,126.2,466.656,124.835,466.66z"/>
</g>
</svg>
