<?xml version="1.0" encoding="utf-8"?>
<!-- Generator: Adobe Illustrator 16.0.0, SVG Export Plug-In . SVG Version: 6.00 Build 0)  -->
<!DOCTYPE svg PUBLIC "-//W3C//DTD SVG 1.1//EN" "http://www.w3.org/Graphics/SVG/1.1/DTD/svg11.dtd">
<svg version="1.1" id="Layer_1" xmlns="http://www.w3.org/2000/svg" xmlns:xlink="http://www.w3.org/1999/xlink" x="0px" y="0px"
	 width="318px" height="249px" viewBox="0 0 318 249" enable-background="new 0 0 318 249" xml:space="preserve">
<polygon fill="#FFA600" points="40.537,1.583 40.537,16.178 50.226,16.178 50.226,11.312 306.86,11.312 306.86,200.721 
	302.02,200.721 302.02,210.454 316.546,210.454 316.546,1.583 "/>
<polygon fill="#FFA600" points="297.896,20.232 21.888,20.232 21.888,34.831 31.573,34.831 31.573,29.961 288.211,29.961 
	288.211,219.375 283.371,219.375 283.371,229.104 297.896,229.104 "/>
<path fill="#FFA600" d="M3.238,38.881v208.872h276.009V38.881H3.238z M269.566,238.023H12.924V48.61h256.643V238.023z"/>
<path fill="#FFA600" d="M25.617,106.019v119.355h115.625V106.019H25.617z M131.441,215.5H35.419v-99.606h96.022V215.5z"/>
<rect x="29.347" y="72.45" fill="#FFA600" width="227.521" height="11.189"/>
<rect x="156.162" y="106.019" fill="#FFA600" width="100.706" height="11.19"/>
<rect x="156.162" y="124.668" fill="#FFA600" width="100.706" height="11.189"/>
<rect x="156.162" y="147.046" fill="#FFA600" width="100.706" height="11.19"/>
<rect x="156.162" y="169.427" fill="#FFA600" width="100.706" height="11.189"/>
<rect x="156.162" y="188.075" fill="#FFA600" width="100.706" height="11.19"/>
<rect x="156.162" y="210.454" fill="#FFA600" width="100.706" height="11.19"/>
</svg>
