<?xml version="1.0" encoding="utf-8"?>
<!-- Generator: Adobe Illustrator 16.0.0, SVG Export Plug-In . SVG Version: 6.00 Build 0)  -->
<!DOCTYPE svg PUBLIC "-//W3C//DTD SVG 1.1//EN" "http://www.w3.org/Graphics/SVG/1.1/DTD/svg11.dtd">
<svg version="1.1" id="Layer_1" xmlns="http://www.w3.org/2000/svg" xmlns:xlink="http://www.w3.org/1999/xlink" x="0px" y="0px"
	 width="500px" height="330px" viewBox="0 85 500 330" enable-background="new 0 85 500 330" xml:space="preserve">
<g>
	<g>
		<g>
			<circle fill="#FFA600" cx="256.357" cy="235.5" r="49.833"/>
			<path display="none" fill="#FFA600" d="M344.784,376.2H167.442c0,0,26.74-78.015,42.321-82.83
				c23.173-7.156,69.776-5.404,86.402-2.302C313.298,294.271,344.784,376.2,344.784,376.2z"/>
		</g>
		<path fill="#FFA600" d="M312.981,329.813V376.2h31.803c0,0-31.486-81.929-48.619-85.132c-16.626-3.104-63.229-4.854-86.402,2.302
			c-15.581,4.815-42.321,82.83-42.321,82.83h27.913v-46.388l57.695,19.227L312.981,329.813z"/>
		<polygon fill="#FFA600" points="250.982,406.492 198.218,388.904 198.218,334.236 250.982,351.825 		"/>
		<polygon fill="#FFA600" points="254.893,406.492 310.098,388.904 310.098,334.236 254.893,351.825 		"/>
	</g>
	<g>
		<g>
			<circle fill="#FFA600" cx="92.449" cy="144.629" r="49.833"/>
			<path display="none" fill="#FFA600" d="M180.875,285.329H3.533c0,0,26.74-78.015,42.321-82.83
				c23.173-7.156,69.776-5.404,86.402-2.301C149.389,203.401,180.875,285.329,180.875,285.329z"/>
		</g>
		<path fill="#FFA600" d="M149.072,238.941v46.388h31.803c0,0-31.486-81.928-48.619-85.131c-16.626-3.104-63.229-4.855-86.402,2.301
			c-15.581,4.815-42.321,82.83-42.321,82.83h27.913v-46.388l57.695,19.227L149.072,238.941z"/>
		<polygon fill="#FFA600" points="87.073,315.621 34.309,298.033 34.309,243.366 87.073,260.954 		"/>
		<polygon fill="#FFA600" points="90.983,315.621 146.188,298.033 146.188,243.366 90.983,260.954 		"/>
	</g>
	<g>
		<g>
			<circle fill="#FFA600" cx="408.786" cy="142.674" r="49.833"/>
			<path display="none" fill="#FFA600" d="M497.212,283.374H319.87c0,0,26.739-78.015,42.321-82.83
				c23.172-7.156,69.774-5.404,86.4-2.301C465.726,201.446,497.212,283.374,497.212,283.374z"/>
		</g>
		<path fill="#FFA600" d="M465.409,236.986v46.388h31.803c0,0-31.486-81.928-48.619-85.131c-16.626-3.104-63.229-4.855-86.4,2.301
			c-15.582,4.815-42.321,82.83-42.321,82.83h27.913v-46.388l57.695,19.227L465.409,236.986z"/>
		<polygon fill="#FFA600" points="403.41,313.666 350.646,296.078 350.646,241.411 403.41,258.999 		"/>
		<polygon fill="#FFA600" points="407.32,313.666 462.525,296.078 462.525,241.411 407.32,258.999 		"/>
	</g>
</g>
</svg>
