<?xml version="1.0" encoding="utf-8"?>
<!-- Generator: Adobe Illustrator 16.0.0, SVG Export Plug-In . SVG Version: 6.00 Build 0)  -->
<!DOCTYPE svg PUBLIC "-//W3C//DTD SVG 1.1//EN" "http://www.w3.org/Graphics/SVG/1.1/DTD/svg11.dtd">
<svg version="1.1" id="Capa_1" xmlns="http://www.w3.org/2000/svg" xmlns:xlink="http://www.w3.org/1999/xlink" x="0px" y="0px"
	 width="175px" height="110px" viewBox="0 0 175 110" enable-background="new 0 0 175 110" xml:space="preserve">
<g>
	<g>
		<g>
			<path fill="#FFA600" d="M31.564,1.322c9.38,0,16.934,7.554,16.934,16.938c0,9.341-7.554,16.931-16.934,16.931
				c-9.383,0-16.937-7.59-16.937-16.931C14.628,8.875,22.183,1.322,31.564,1.322z"/>
		</g>
		<polygon fill="#FFA600" points="30.451,78.918 11.688,73.672 11.688,55.067 30.451,60.355 		"/>
		<path fill="#FFA600" d="M31.564,58.051l21.068-5.768v15.622h10.733l-12.72-25.162c-1.272-2.623-4.134-4.452-7.078-4.452H19.716
			c-2.941,0-5.725,1.672-7.075,4.452L0,67.906h10.416V52.285L31.564,58.051L31.564,58.051z"/>
		<polygon fill="#FFA600" points="32.52,78.918 51.122,73.672 51.122,55.067 32.52,60.355 		"/>
	</g>
	<g>
		<g>
			<path fill="#FFA600" d="M89.283,32.363c9.385,0,17.016,7.593,17.016,16.976c0,9.341-7.631,16.931-17.016,16.931
				c-9.38,0-16.934-7.59-16.934-16.931C72.351,39.957,79.903,32.363,89.283,32.363z"/>
		</g>
		<polygon fill="#FFA600" points="88.172,110 69.566,104.754 69.566,86.151 88.172,91.434 		"/>
		<path fill="#FFA600" d="M89.283,89.131l21.068-5.768v15.623h10.732l-12.719-25.162c-1.271-2.623-4.135-4.451-6.996-4.451H77.518
			c-3.02,0-5.803,1.672-7.154,4.451L57.722,98.987h10.416V83.364L89.283,89.131L89.283,89.131z"/>
		<polygon fill="#FFA600" points="90.478,110 109.002,104.754 109.002,86.151 90.478,91.434 		"/>
	</g>
	<g>
		<g>
			<path fill="#FFA600" d="M143.904,0.494c9.381,0,16.934,7.596,16.934,16.937c0,9.38-7.553,16.934-16.934,16.934
				c-9.302,0-16.935-7.554-16.935-16.934C126.971,8.089,134.604,0.494,143.904,0.494z"/>
		</g>
		<polygon fill="#FFA600" points="142.711,78.131 124.188,72.883 124.188,54.438 142.711,59.526 		"/>
		<path fill="#FFA600" d="M143.904,57.422l21.067-5.769v15.623h10.655l-12.642-25.162c-1.353-2.623-4.056-4.452-7.075-4.452H132.06
			c-2.944,0-5.726,1.629-7.078,4.452l-12.64,25.163h10.334V51.654L143.904,57.422L143.904,57.422z"/>
		<polygon fill="#FFA600" points="144.938,78.131 163.701,72.883 163.701,54.438 144.938,59.526 		"/>
	</g>
</g>
</svg>
