<?xml version="1.0" encoding="utf-8"?>
<!-- Generator: Adobe Illustrator 16.0.0, SVG Export Plug-In . SVG Version: 6.00 Build 0)  -->
<!DOCTYPE svg PUBLIC "-//W3C//DTD SVG 1.1//EN" "http://www.w3.org/Graphics/SVG/1.1/DTD/svg11.dtd">
<svg version="1.1" id="Capa_1" xmlns="http://www.w3.org/2000/svg" xmlns:xlink="http://www.w3.org/1999/xlink" x="0px" y="0px"
	 width="175px" height="300px" viewBox="0 0 175 300" enable-background="new 0 0 175 300" xml:space="preserve">
<g>
	<path fill="#FFA600" d="M88.842,0.544c21.082,0,38.213,17.132,38.213,38.213c0,21.08-17.131,38.212-38.213,38.212
		c-21.158,0-38.291-17.132-38.291-38.212C50.551,17.677,67.684,0.544,88.842,0.544z"/>
	<path fill="#FFA600" d="M136.844,159.949l13.029,19.58c3.947,5.92,12.08,7.184,17.687,3.314l0,0
		c5.525-3.947,6.865-11.137,3.551-17.053l-44.056-72.162c-3.631-5.844-10.184-9.791-17.369-9.791h-44.37
		c-7.185,0-13.739,3.552-17.369,9.791L3.889,165.791c-3.314,5.604-1.973,13.104,3.555,17.053l0,0
		c5.92,3.867,13.736,2.604,17.686-3.314l15.63-23.215l-12.079,67.03c-0.631,2.924,1.657,5.528,4.577,5.528h16.661v53.531
		c0,9.474,7.501,17.052,16.975,17.052l0,0c9.475,0,17.054-7.578,17.054-17.052v-53.531h5.84v53.531
		c0,9.474,7.503,17.052,16.978,17.052l0,0c9.473,0,16.975-7.578,16.975-17.052v-53.531h20.922c2.92,0,5.213-2.604,4.581-5.528
		L136.844,159.949z"/>
</g>
</svg>
