<?xml version="1.0" encoding="utf-8"?>
<!-- Generator: Adobe Illustrator 16.0.0, SVG Export Plug-In . SVG Version: 6.00 Build 0)  -->
<!DOCTYPE svg PUBLIC "-//W3C//DTD SVG 1.1//EN" "http://www.w3.org/Graphics/SVG/1.1/DTD/svg11.dtd">
<svg version="1.1" id="Layer_1" xmlns="http://www.w3.org/2000/svg" xmlns:xlink="http://www.w3.org/1999/xlink" x="0px" y="0px"
	 width="210px" height="360px" viewBox="0 0 210 360" enable-background="new 0 0 210 360" xml:space="preserve">
<g>
	<circle fill="#FFA600" cx="103.354" cy="45.291" r="44.969"/>
	<path fill="#FFA600" d="M4.274,196.538c12.577-23.148,33.529-58.954,44.621-79.689c3.875-7.243,9.49-18.978,26.817-18.978
		c17.329,0,26.243-0.192,49.761,0c12.277-0.085,19.027-1.621,29.45,15.265c10.242,17.126,31.168,52.88,52.574,85.402
		c3.421,5.197,5.409,9.556,0.424,12.956c-2.732,2.431-9.936,7.01-15.702,10.908c-3.731,2.522-7.266,0.292-11.219-4.902
		c-2.597-3.592-23.172-33.155-23.172-33.155s13.713,54.38,21.439,86.394c0.543,2.246-1.066,7.492-5.81,7.513
		c-3.125-0.002-23.067-0.077-23.067-0.077s0.015,66.326,0,70.664c0.109,8.412,1.033,11.219-8.838,11.121
		c-5.393-0.055-19.561,0.228-26.053-0.006c-7.875,0.131-10.613,0-10.5-11.828c-0.208-17.347-0.066-69.531-0.066-69.531l-4.881-0.023
		c0,0-0.047,60.681,0,69.787c0.072,9.893,1.072,11.727-10.431,11.727c-6.593-0.083-16.122,0-24.372-0.168
		c-9.125,0.168-8.563-3.566-8.563-11.729c0.005-3.813-0.155-69.852-0.155-69.852H34.868c0,0-8.458-1.037-5.776-12.137
		c5.333-22.072,20.27-82.303,20.27-82.303s-12.246,19.342-17.737,27.979c-3.377,5.313-6.063,13.188-14.784,8.941
		c-1.029-0.501-10.199-5.622-14.466-8.936C-2.625,208.188,1.625,200.938,4.274,196.538z"/>
	<path fill="#FFA600" d="M105,348.125c-0.208-17.347-0.066-69.531-0.066-69.531"/>
	<path fill="#FFA600" d="M114.5,359.953"/>
</g>
</svg>
